<?xml version="1.0" encoding="UTF-8"?>
<svg version="1.1" xmlns="http://www.w3.org/2000/svg" width="500" height="500">
<path d="M0 0 C2.875 0.4375 2.875 0.4375 5.875 2.4375 C5.875 3.0975 5.875 3.7575 5.875 4.4375 C6.555625 3.7775 7.23625 3.1175 7.9375 2.4375 C11.57795227 -0.0411058 13.55148012 -0.12295628 17.875 0.4375 C19.8125 1.9375 19.8125 1.9375 20.875 3.4375 C23.5655528 2.21742056 23.5655528 2.21742056 25.875 0.4375 C29.82855026 -0.01176708 31.43122323 0.12878572 34.75 2.4375 C35.45125 3.0975 36.1525 3.7575 36.875 4.4375 C37.41125 3.7775 37.9475 3.1175 38.5 2.4375 C40.875 0.4375 40.875 0.4375 43.8125 -0.125 C47.99678713 0.64354253 49.44427503 1.97555838 51.875 5.4375 C51.80192067 9.60302191 51.01992003 12.86263328 48.875 16.4375 C49.865 17.0975 50.855 17.7575 51.875 18.4375 C52.41125 17.9425 52.9475 17.4475 53.5 16.9375 C56.55745535 15.00647557 58.313173 14.99227163 61.875 15.4375 C64.1875 16.5625 64.1875 16.5625 65.875 18.4375 C66.8125 21.3125 66.8125 21.3125 66.875 24.4375 C65.4375 27.1875 65.4375 27.1875 63.875 29.4375 C63.64853066 31.57621247 63.64853066 31.57621247 65.4375 33.125 C66.875 35.4375 66.875 35.4375 66.75 39 C65.91884183 42.26526426 65.51751362 43.48433776 62.875 45.4375 C63.555625 46.13875 64.23625 46.84 64.9375 47.5625 C66.875 50.4375 66.875 50.4375 66.8125 53.5 C65.88788243 56.39713504 64.87595857 58.17554684 62.875 60.4375 C63.349375 60.80875 63.82375 61.18 64.3125 61.5625 C66.46073297 64.14037957 66.67189217 66.12007217 66.875 69.4375 C65.89583184 72.1490426 64.92698782 73.38551218 62.875 75.4375 C63.349375 75.80875 63.82375 76.18 64.3125 76.5625 C66.5101705 79.1997046 66.80670718 81.02285902 66.875 84.4375 C64.9375 87.3125 64.9375 87.3125 62.875 89.4375 C63.349375 89.788125 63.82375 90.13875 64.3125 90.5 C66.66759706 93.42032035 66.81111417 95.73212195 66.875 99.4375 C64.9375 102.375 64.9375 102.375 62.875 104.4375 C63.555625 105.118125 64.23625 105.79875 64.9375 106.5 C66.875 109.4375 66.875 109.4375 66.8125 113.0625 C65.92746381 116.24863027 65.47515121 117.51564911 62.875 119.4375 C63.865 120.2109375 63.865 120.2109375 64.875 121 C66.875 123.4375 66.875 123.4375 67.25 127 C66.875 130.4375 66.875 130.4375 64.875 133.4375 C64.215 133.4375 63.555 133.4375 62.875 133.4375 C62.875 134.0975 62.875 134.7575 62.875 135.4375 C63.865 135.7675 64.855 136.0975 65.875 136.4375 C67.38434217 139.45618434 67.05010672 142.11047229 66.875 145.4375 C66.215 146.4275 65.555 147.4175 64.875 148.4375 C64.215 148.4375 63.555 148.4375 62.875 148.4375 C62.875 149.0975 62.875 149.7575 62.875 150.4375 C63.865 150.7675 64.855 151.0975 65.875 151.4375 C67.40346661 154.49443322 67.10742445 157.06734547 66.875 160.4375 C65.375 162.875 65.375 162.875 63.875 164.4375 C64.37 164.7675 64.865 165.0975 65.375 165.4375 C67.32616026 168.03904701 67.42101934 170.29054433 67.28515625 173.4921875 C66.875 175.4375 66.875 175.4375 64.8125 178 C60.98352228 179.87375505 58.94165724 179.56712701 54.875 178.4375 C52.9375 176.875 52.9375 176.875 51.875 175.4375 C51.524375 175.911875 51.17375 176.38625 50.8125 176.875 C47.86441713 179.25248619 45.6205316 179.4375 41.875 179.4375 C38.875 177.4375 38.875 177.4375 36.875 174.4375 C36.875 170.6919684 37.06001381 168.44808287 39.4375 165.5 C39.911875 165.149375 40.38625 164.79875 40.875 164.4375 C40.194375 163.756875 39.51375 163.07625 38.8125 162.375 C36.875 159.4375 36.875 159.4375 36.9375 155.8125 C37.82253619 152.62636973 38.27484879 151.35935089 40.875 149.4375 C40.194375 148.756875 39.51375 148.07625 38.8125 147.375 C36.875 144.4375 36.875 144.4375 37 140.875 C37.71157231 138.07953737 38.40224434 135.89209277 39.875 133.4375 C39.359375 132.921875 38.84375 132.40625 38.3125 131.875 C36.25915101 128.39323432 36.89834972 126.2743404 37.875 122.4375 C39.4375 120.5 39.4375 120.5 40.875 119.4375 C40.235625 118.86 39.59625 118.2825 38.9375 117.6875 C35.96339779 114.44302486 35.96339779 114.44302486 35.875 111.4375 C37.3125 108.1875 37.3125 108.1875 38.875 105.4375 C39.535 105.4375 40.195 105.4375 40.875 105.4375 C40.875 104.7775 40.875 104.1175 40.875 103.4375 C39.225 102.7775 37.575 102.1175 35.875 101.4375 C35.524375 101.9325 35.17375 102.4275 34.8125 102.9375 C31.8734205 105.21291639 29.48073045 104.75944022 25.875 104.4375 C24.885 103.7775 23.895 103.1175 22.875 102.4375 C22.875 101.7775 22.875 101.1175 22.875 100.4375 C22.215 100.4375 21.555 100.4375 20.875 100.4375 C20.38 101.9225 20.38 101.9225 19.875 103.4375 C16.85631566 104.94684217 14.20202771 104.61260672 10.875 104.4375 C9.885 103.7775 8.895 103.1175 7.875 102.4375 C7.875 101.7775 7.875 101.1175 7.875 100.4375 C7.215 100.4375 6.555 100.4375 5.875 100.4375 C5.545 101.4275 5.215 102.4175 4.875 103.4375 C1.78326248 104.98336876 -0.71929552 104.73109521 -4.125 104.4375 C-6.5625 102.8125 -6.5625 102.8125 -8.125 100.4375 C-8.81043938 96.41054363 -8.47466143 94.94013831 -6.125 91.5625 C-5.465 90.86125 -4.805 90.16 -4.125 89.4375 C-5.445 88.4475 -6.765 87.4575 -8.125 86.4375 C-8.455 86.9325 -8.785 87.4275 -9.125 87.9375 C-11.85000709 89.98125532 -13.91817288 89.86785904 -17.25390625 89.71484375 C-19.125 89.4375 -19.125 89.4375 -21.0625 88.375 C-22.73465977 85.32576749 -23.06521398 82.90508942 -23.125 79.4375 C-21.1875 76.5 -21.1875 76.5 -19.125 74.4375 C-19.8365625 73.880625 -19.8365625 73.880625 -20.5625 73.3125 C-22.71073297 70.73462043 -22.92189217 68.75492783 -23.125 65.4375 C-22.15894425 62.68795672 -21.74484486 61.74742243 -19.125 60.4375 C-19.805625 59.756875 -20.48625 59.07625 -21.1875 58.375 C-23.125 55.4375 -23.125 55.4375 -23.0625 51.8125 C-22.17746381 48.62636973 -21.72515121 47.35935089 -19.125 45.4375 C-19.805625 44.756875 -20.48625 44.07625 -21.1875 43.375 C-23.125 40.4375 -23.125 40.4375 -23.0625 36.8125 C-22.17746381 33.62636973 -21.72515121 32.35935089 -19.125 30.4375 C-19.805625 29.756875 -20.48625 29.07625 -21.1875 28.375 C-23.125 25.4375 -23.125 25.4375 -23.0625 21.8125 C-21.69642857 16.89464286 -21.69642857 16.89464286 -19.125 15.4375 C-15.6875 15 -15.6875 15 -12.125 15.4375 C-9.6875 17.4375 -9.6875 17.4375 -8.125 19.4375 C-6.805 17.7875 -5.485 16.1375 -4.125 14.4375 C-4.785 14.4375 -5.445 14.4375 -6.125 14.4375 C-8.47049674 10.91925489 -8.70491403 9.57974306 -8.125 5.4375 C-5.60303097 2.02542425 -4.2481609 0.59474253 0 0 Z M4.25 12.8125 C2.65968592 14.33718321 2.65968592 14.33718321 2.875 16.4375 C3.37 16.829375 3.865 17.22125 4.375 17.625 C5.875 19.4375 5.875 19.4375 6.25 22.9375 C5.875 26.4375 5.875 26.4375 4.375 28.25 C3.88 28.641875 3.385 29.03375 2.875 29.4375 C2.875 30.0975 2.875 30.7575 2.875 31.4375 C3.36613281 31.87707031 3.85726562 32.31664062 4.36328125 32.76953125 C6.36133518 34.97410238 6.18958514 36.20204184 6.0625 39.125 C6.03542969 39.93324219 6.00835937 40.74148437 5.98046875 41.57421875 C5.94566406 42.18910156 5.91085938 42.80398437 5.875 43.4375 C4.39 43.9325 4.39 43.9325 2.875 44.4375 C3.37 44.9325 3.865 45.4275 4.375 45.9375 C6.46151528 49.41502546 6.64712822 52.47119924 5.875 56.4375 C3.875 58.9375 3.875 58.9375 1.875 60.4375 C2.535 60.7675 3.195 61.0975 3.875 61.4375 C5.875 63.4375 5.875 63.4375 6.375 67.375 C6.2328457 70.59124106 5.97948312 71.30689611 3.875 73.9375 C3.215 74.4325 2.555 74.9275 1.875 75.4375 C2.535 75.7675 3.195 76.0975 3.875 76.4375 C5.875 78.4375 5.875 78.4375 6.3125 82.375 C6.15073375 85.8885629 5.42291033 87.88958967 2.875 90.4375 C3.865 90.7675 4.855 91.0975 5.875 91.4375 C5.875 92.0975 5.875 92.7575 5.875 93.4375 C8.5655528 92.21742056 8.5655528 92.21742056 10.875 90.4375 C17.29992918 89.96157932 17.29992918 89.96157932 19.6875 91.9375 C20.079375 92.4325 20.47125 92.9275 20.875 93.4375 C21.535 93.4375 22.195 93.4375 22.875 93.4375 C22.875 92.7775 22.875 92.1175 22.875 91.4375 C30.91001094 89.82699672 30.91001094 89.82699672 34.9375 92.375 C35.576875 93.055625 36.21625 93.73625 36.875 94.4375 C38.195 92.7875 39.515 91.1375 40.875 89.4375 C40.400625 89.045625 39.92625 88.65375 39.4375 88.25 C36.88193016 85.28553898 36.79655942 82.56181493 37.0625 78.75 C37.875 76.4375 37.875 76.4375 39.9375 75.125 C40.576875 74.898125 41.21625 74.67125 41.875 74.4375 C41.235625 74.045625 40.59625 73.65375 39.9375 73.25 C37.875 71.4375 37.875 71.4375 36.9375 69.0625 C36.8566279 65.66587196 37.89616568 64.14923592 39.875 61.4375 C40.535 60.7775 41.195 60.1175 41.875 59.4375 C40.555 59.1075 39.235 58.7775 37.875 58.4375 C37.79346067 56.85503293 37.73556443 55.27133727 37.6875 53.6875 C37.65269531 52.80578125 37.61789063 51.9240625 37.58203125 51.015625 C37.92576316 47.99078417 38.87727459 46.68166398 40.875 44.4375 C40.400625 44.025 39.92625 43.6125 39.4375 43.1875 C37.63154432 41.16482964 37.11265989 40.13097874 36.875 37.4375 C37.85603995 34.34345092 39.06344162 32.15483757 40.875 29.4375 C40.400625 29.025 39.92625 28.6125 39.4375 28.1875 C37.63154432 26.16482964 37.11265989 25.13097874 36.875 22.4375 C37.6875 19.75 37.6875 19.75 38.875 17.4375 C39.535 17.1075 40.195 16.7775 40.875 16.4375 C40.875 15.7775 40.875 15.1175 40.875 14.4375 C38.41173288 12.7928326 38.41173288 12.7928326 35.875 11.4375 C35.545 12.4275 35.215 13.4175 34.875 14.4375 C33.43844146 14.51881463 32.0005517 14.57683559 30.5625 14.625 C29.76199219 14.65980469 28.96148437 14.69460937 28.13671875 14.73046875 C25.36791259 14.3718151 24.69139042 13.46695675 22.875 11.4375 C22.215 11.4375 21.555 11.4375 20.875 11.4375 C20.483125 11.9325 20.09125 12.4275 19.6875 12.9375 C17.875 14.4375 17.875 14.4375 14.375 14.8125 C10.875 14.4375 10.875 14.4375 9.0625 12.9375 C8.4746875 12.195 8.4746875 12.195 7.875 11.4375 C5.77468321 11.22218592 5.77468321 11.22218592 4.25 12.8125 Z M50.875 25.4375 C49.39 27.4175 49.39 27.4175 47.875 29.4375 C49.02673355 31.90550047 49.92283565 33.48533565 51.875 35.4375 C53.195 33.4575 54.515 31.4775 55.875 29.4375 C54.225 28.1175 52.575 26.7975 50.875 25.4375 Z M-9.125 26.4375 C-10.66666642 27.81235532 -10.66666642 27.81235532 -12.125 29.4375 C-12.125 30.0975 -12.125 30.7575 -12.125 31.4375 C-9.66173288 33.0821674 -9.66173288 33.0821674 -7.125 34.4375 C-6.135 33.4475 -5.145 32.4575 -4.125 31.4375 C-4.91617904 29.43766466 -4.91617904 29.43766466 -6.125 27.4375 C-7.115 27.1075 -8.105 26.7775 -9.125 26.4375 Z M-8.125 40.4375 C-9.445 42.0875 -10.765 43.7375 -12.125 45.4375 C-9.65 47.4175 -9.65 47.4175 -7.125 49.4375 C-6.795 48.4475 -6.465 47.4575 -6.125 46.4375 C-5.135 46.1075 -4.145 45.7775 -3.125 45.4375 C-4.775 43.7875 -6.425 42.1375 -8.125 40.4375 Z M50.875 40.4375 C49.555 42.0875 48.235 43.7375 46.875 45.4375 C47.865 45.7675 48.855 46.0975 49.875 46.4375 C51.0625 48.5 51.0625 48.5 51.875 50.4375 C53.195 48.4575 54.515 46.4775 55.875 44.4375 C54.225 43.1175 52.575 41.7975 50.875 40.4375 Z M-8.125 55.4375 C-8.455 56.4275 -8.785 57.4175 -9.125 58.4375 C-11.1875 59.625 -11.1875 59.625 -13.125 60.4375 C-10.155 62.4175 -10.155 62.4175 -7.125 64.4375 C-5.805 62.7875 -4.485 61.1375 -3.125 59.4375 C-4.775 58.1175 -6.425 56.7975 -8.125 55.4375 Z M50.875 55.4375 C49.51672029 57.08389965 48.18245749 58.75045807 46.875 60.4375 C47.865 60.7675 48.855 61.0975 49.875 61.4375 C50.205 62.4275 50.535 63.4175 50.875 64.4375 C51.535 64.1075 52.195 63.7775 52.875 63.4375 C52.875 62.7775 52.875 62.1175 52.875 61.4375 C53.865 61.1075 54.855 60.7775 55.875 60.4375 C55.545 59.7775 55.215 59.1175 54.875 58.4375 C54.215 58.4375 53.555 58.4375 52.875 58.4375 C52.545 57.4475 52.215 56.4575 51.875 55.4375 C51.545 55.4375 51.215 55.4375 50.875 55.4375 Z M-8.125 70.4375 C-9.775 72.0875 -11.425 73.7375 -13.125 75.4375 C-12.485625 75.540625 -11.84625 75.64375 -11.1875 75.75 C-10.506875 75.976875 -9.82625 76.20375 -9.125 76.4375 C-8.795 77.4275 -8.465 78.4175 -8.125 79.4375 C-6.475 77.7875 -4.825 76.1375 -3.125 74.4375 C-4.775 73.1175 -6.425 71.7975 -8.125 70.4375 Z M50.875 70.4375 C50.545 71.4275 50.215 72.4175 49.875 73.4375 C48.885 73.7675 47.895 74.0975 46.875 74.4375 C48.525 76.0875 50.175 77.7375 51.875 79.4375 C52.205 78.4475 52.535 77.4575 52.875 76.4375 C53.865 76.1075 54.855 75.7775 55.875 75.4375 C54.225 73.7875 52.575 72.1375 50.875 70.4375 Z M50.875 84.4375 C50.771875 85.076875 50.66875 85.71625 50.5625 86.375 C50.335625 87.055625 50.10875 87.73625 49.875 88.4375 C48.885 88.7675 47.895 89.0975 46.875 89.4375 C48.525 91.0875 50.175 92.7375 51.875 94.4375 C53.195 92.7875 54.515 91.1375 55.875 89.4375 C54.225 87.7875 52.575 86.1375 50.875 84.4375 Z M50.875 99.4375 C49.39 101.4175 49.39 101.4175 47.875 103.4375 C49.02673355 105.90550047 49.92283565 107.48533565 51.875 109.4375 C53.25062854 108.14784824 54.58266393 106.81060707 55.875 105.4375 C55.875 104.7775 55.875 104.1175 55.875 103.4375 C54.24873596 102.05517557 52.5824998 100.71812485 50.875 99.4375 Z M50.875 114.4375 C48.53212582 117.10997634 48.53212582 117.10997634 47.875 120.4375 C49.50126404 121.81982443 51.1675002 123.15687515 52.875 124.4375 C54.195 122.7875 55.515 121.1375 56.875 119.4375 C54.895 117.7875 52.915 116.1375 50.875 114.4375 Z M51.875 130.4375 C49.8350281 131.80073743 49.8350281 131.80073743 47.875 133.4375 C47.64890663 135.56114481 47.64890663 135.56114481 49.375 137.0625 C49.87 137.51625 50.365 137.97 50.875 138.4375 C52.195 137.7775 53.515 137.1175 54.875 136.4375 C54.875 135.1175 54.875 133.7975 54.875 132.4375 C53.885 131.7775 52.895 131.1175 51.875 130.4375 Z M51.875 144.4375 C50.555 146.0875 49.235 147.7375 47.875 149.4375 C50.35 151.4175 50.35 151.4175 52.875 153.4375 C53.865 152.4475 54.855 151.4575 55.875 150.4375 C54.72326645 147.96949953 53.82716435 146.38966435 51.875 144.4375 Z M51.875 159.4375 C50.555 161.0875 49.235 162.7375 47.875 164.4375 C50.35 166.4175 50.35 166.4175 52.875 168.4375 C53.205 167.4475 53.535 166.4575 53.875 165.4375 C54.865 165.1075 55.855 164.7775 56.875 164.4375 C55.225 162.7875 53.575 161.1375 51.875 159.4375 Z " fill="#F97408" transform="translate(39.125,164.5625)"/>
<path d="M0 0 C1.48831242 0.00667405 2.97660807 0.01863442 4.46484375 0.03515625 C5.22345703 0.03966797 5.98207031 0.04417969 6.76367188 0.04882812 C8.64326246 0.06064945 10.52281274 0.07858547 12.40234375 0.09765625 C13.87779781 3.04856437 13.54108742 6.03500829 13.53173828 9.26953125 C13.53436676 10.3770575 13.53436676 10.3770575 13.53704834 11.50695801 C13.54145887 13.95388115 13.53853167 16.40073234 13.53515625 18.84765625 C13.53582952 20.54394545 13.53679974 22.24023456 13.53805542 23.93652344 C13.53953131 27.49414996 13.53738132 31.05175139 13.53271484 34.609375 C13.52701762 39.17610673 13.5302972 43.7427797 13.53628731 48.30950928 C13.53989585 51.81299281 13.53875298 55.31646234 13.53615952 58.81994629 C13.53549106 60.50410977 13.53631584 62.18827451 13.53863907 63.87243652 C13.54117037 66.22358582 13.53731822 68.57463912 13.53173828 70.92578125 C13.53477463 71.97626648 13.53477463 71.97626648 13.53787231 73.04797363 C13.51660833 77.8691271 13.51660833 77.8691271 12.40234375 80.09765625 C10.09234375 80.09765625 7.78234375 80.09765625 5.40234375 80.09765625 C4.74234375 82.40765625 4.08234375 84.71765625 3.40234375 87.09765625 C1.42234375 87.42765625 -0.55765625 87.75765625 -2.59765625 88.09765625 C-2.92765625 89.74765625 -3.25765625 91.39765625 -3.59765625 93.09765625 C-14.48765625 93.09765625 -25.37765625 93.09765625 -36.59765625 93.09765625 C-36.59765625 91.11765625 -36.59765625 89.13765625 -36.59765625 87.09765625 C-41.54765625 87.09765625 -46.49765625 87.09765625 -51.59765625 87.09765625 C-51.59765625 89.07765625 -51.59765625 91.05765625 -51.59765625 93.09765625 C-62.48765625 93.09765625 -73.37765625 93.09765625 -84.59765625 93.09765625 C-84.92765625 91.44765625 -85.25765625 89.79765625 -85.59765625 88.09765625 C-87.90765625 87.43765625 -90.21765625 86.77765625 -92.59765625 86.09765625 C-93.09265625 83.12765625 -93.09265625 83.12765625 -93.59765625 80.09765625 C-95.90765625 80.09765625 -98.21765625 80.09765625 -100.59765625 80.09765625 C-101.82298201 77.64700474 -101.72456783 76.05192248 -101.72705078 73.3125 C-101.73020294 72.31806885 -101.7333551 71.3236377 -101.73660278 70.29907227 C-101.73457855 69.22197998 -101.73255432 68.1448877 -101.73046875 67.03515625 C-101.73142548 65.93292725 -101.7323822 64.83069824 -101.73336792 63.69506836 C-101.73404931 61.36149031 -101.73219788 59.02791036 -101.72802734 56.69433594 C-101.72267855 53.1125871 -101.72797375 49.53096367 -101.734375 45.94921875 C-101.73371421 43.68619764 -101.73243303 41.42317661 -101.73046875 39.16015625 C-101.7335051 37.54451782 -101.7335051 37.54451782 -101.73660278 35.89624023 C-101.73345062 34.90180908 -101.73029846 33.90737793 -101.72705078 32.8828125 C-101.72625519 32.0050415 -101.72545959 31.12727051 -101.72463989 30.22290039 C-101.59765625 28.09765625 -101.59765625 28.09765625 -100.59765625 26.09765625 C-95.31765625 26.09765625 -90.03765625 26.09765625 -84.59765625 26.09765625 C-83.35588104 28.58120666 -83.47728944 30.22873247 -83.48413086 33.00634766 C-83.48420639 34.02725494 -83.48428192 35.04816223 -83.48435974 36.1000061 C-83.48952103 37.20524628 -83.49468231 38.31048645 -83.5 39.44921875 C-83.50141495 40.57838715 -83.5028299 41.70755554 -83.50428772 42.87094116 C-83.50989881 46.48820613 -83.52245322 50.10540989 -83.53515625 53.72265625 C-83.54016982 56.17057202 -83.54473297 58.61848877 -83.54882812 61.06640625 C-83.55902226 67.07686565 -83.57859558 73.08719218 -83.59765625 79.09765625 C-73.36765625 79.09765625 -63.13765625 79.09765625 -52.59765625 79.09765625 C-52.60925781 75.35550781 -52.62085938 71.61335938 -52.6328125 67.7578125 C-52.64060172 64.15047287 -52.64667925 60.54313416 -52.65258789 56.93579102 C-52.65762988 54.4204873 -52.66446328 51.90518653 -52.6730957 49.38989258 C-52.68516719 45.7833585 -52.69088574 42.17686302 -52.6953125 38.5703125 C-52.70047379 37.43803726 -52.70563507 36.30576202 -52.71095276 35.13917542 C-52.71102829 34.09817184 -52.71110382 33.05716827 -52.71118164 31.98461914 C-52.71340225 31.06306534 -52.71562286 30.14151154 -52.71791077 29.19203186 C-52.59765625 27.09765625 -52.59765625 27.09765625 -51.59765625 26.09765625 C-49.08629521 25.99790593 -46.6086221 25.95883442 -44.09765625 25.97265625 C-43.39511719 25.96878906 -42.69257813 25.96492188 -41.96875 25.9609375 C-36.72427003 25.97104247 -36.72427003 25.97104247 -35.59765625 27.09765625 C-35.50425191 28.72440403 -35.48020454 30.35519676 -35.48413086 31.98461914 C-35.48424416 33.5461245 -35.48424416 33.5461245 -35.48435974 35.13917542 C-35.48952103 36.27145065 -35.49468231 37.40372589 -35.5 38.5703125 C-35.50141495 39.72309189 -35.5028299 40.87587128 -35.50428772 42.06358337 C-35.5099062 45.76246689 -35.52246183 49.46129089 -35.53515625 53.16015625 C-35.54016887 55.66080642 -35.54473219 58.16145754 -35.54882812 60.66210938 C-35.55903275 66.8073333 -35.57860456 72.9524278 -35.59765625 79.09765625 C-25.36765625 79.09765625 -15.13765625 79.09765625 -4.59765625 79.09765625 C-4.60289307 76.7400415 -4.60812988 74.38242676 -4.61352539 71.95336914 C-4.63006155 64.18213632 -4.64112758 56.41090275 -4.64946842 48.63965702 C-4.65469714 43.92585892 -4.66179459 39.21207878 -4.6730957 34.49829102 C-4.68392498 29.95310221 -4.68993317 25.40793073 -4.69253349 20.86273003 C-4.69438767 19.12470667 -4.69800814 17.38668431 -4.70338631 15.64866829 C-4.71059728 13.2228703 -4.71164717 10.79714479 -4.71118164 8.37133789 C-4.71477692 7.64557556 -4.71837219 6.91981323 -4.72207642 6.17205811 C-4.70944292 0.12783504 -4.70944292 0.12783504 0 0 Z " fill="#000000" transform="translate(214.59765625,179.90234375)"/>
<path d="M0 0 C1.12535156 0.00580078 1.12535156 0.00580078 2.2734375 0.01171875 C3.02367187 0.00785156 3.77390625 0.00398437 4.546875 0 C10.14682697 0.01010822 10.14682697 0.01010822 11.2734375 1.13671875 C11.37371735 3.52954146 11.40962427 5.89351215 11.40283203 8.28686523 C11.40546051 9.4088028 11.40546051 9.4088028 11.40814209 10.55340576 C11.41256125 13.03823127 11.40962211 15.52298621 11.40625 18.0078125 C11.40692309 19.72795119 11.40789316 21.44808979 11.40914917 23.16822815 C11.41062629 26.77890933 11.40847141 30.38956582 11.40380859 34.00024414 C11.39811557 38.63538552 11.40138752 43.27046894 11.40738106 47.90560818 C11.41098994 51.459706 11.4098465 55.01379003 11.40725327 58.56788826 C11.40658468 60.27717152 11.40741004 61.98645602 11.40973282 63.69573784 C11.41226422 66.08291834 11.40841164 68.4700043 11.40283203 70.85717773 C11.40485626 71.568423 11.40688049 72.27966827 11.40896606 73.01246643 C11.38770111 77.90819154 11.38770111 77.90819154 10.2734375 80.13671875 C7.9634375 80.13671875 5.6534375 80.13671875 3.2734375 80.13671875 C2.6134375 82.44671875 1.9534375 84.75671875 1.2734375 87.13671875 C-1.6965625 87.63171875 -1.6965625 87.63171875 -4.7265625 88.13671875 C-5.0565625 89.78671875 -5.3865625 91.43671875 -5.7265625 93.13671875 C-16.6165625 93.13671875 -27.5065625 93.13671875 -38.7265625 93.13671875 C-38.7265625 91.15671875 -38.7265625 89.17671875 -38.7265625 87.13671875 C-41.0365625 87.13671875 -43.3465625 87.13671875 -45.7265625 87.13671875 C-46.7165625 84.16671875 -46.7165625 84.16671875 -47.7265625 81.13671875 C-50.0365625 80.80671875 -52.3465625 80.47671875 -54.7265625 80.13671875 C-54.7265625 66.93671875 -54.7265625 53.73671875 -54.7265625 40.13671875 C-52.01776915 38.78232207 -49.71722982 39.07170424 -46.7265625 39.13671875 C-46.7265625 37.48671875 -46.7265625 35.83671875 -46.7265625 34.13671875 C-45.6128125 33.93046875 -44.4990625 33.72421875 -43.3515625 33.51171875 C-41.5571875 32.83109375 -41.5571875 32.83109375 -39.7265625 32.13671875 C-39.0665625 30.15671875 -38.4065625 28.17671875 -37.7265625 26.13671875 C-27.4965625 26.13671875 -17.2665625 26.13671875 -6.7265625 26.13671875 C-6.7661539 17.95419078 -6.7661539 17.95419078 -6.81665039 9.77172852 C-6.81914795 8.75908936 -6.82164551 7.7464502 -6.82421875 6.703125 C-6.82945557 5.66099854 -6.83469238 4.61887207 -6.84008789 3.54516602 C-6.62203632 -1.08080976 -4.01968948 0.00725576 0 0 Z M-37.7265625 41.13671875 C-37.81518242 43.94835255 -37.84178605 46.7353013 -37.82421875 49.546875 C-37.8228038 50.38890976 -37.82138885 51.23094452 -37.81993103 52.09849548 C-37.81431513 54.7987721 -37.80175998 57.49896703 -37.7890625 60.19921875 C-37.78404955 62.02538943 -37.77948629 63.85156141 -37.77539062 65.67773438 C-37.76518966 70.1641196 -37.74561749 74.6503273 -37.7265625 79.13671875 C-27.4965625 79.13671875 -17.2665625 79.13671875 -6.7265625 79.13671875 C-6.70365465 73.74319286 -6.68372724 68.34983454 -6.67163086 62.95629883 C-6.66659019 61.12003 -6.65975773 59.28376521 -6.65112305 57.44750977 C-6.63904578 54.81395474 -6.63333169 52.18045259 -6.62890625 49.546875 C-6.62374496 48.72083267 -6.61858368 47.89479034 -6.61326599 47.04371643 C-6.61307045 45.07435507 -6.66452098 43.10510261 -6.7265625 41.13671875 C-8.58370307 39.27957818 -11.65163299 40.00623194 -14.1328125 40.00390625 C-16.08380859 40.00197266 -16.08380859 40.00197266 -18.07421875 40 C-19.09539795 40.00314209 -19.09539795 40.00314209 -20.13720703 40.00634766 C-22.21784765 40.01169635 -24.29827239 40.00640195 -26.37890625 40 C-27.67957031 40.00128906 -28.98023438 40.00257813 -30.3203125 40.00390625 C-31.52365234 40.00503418 -32.72699219 40.00616211 -33.96679688 40.00732422 C-36.63640732 39.82215898 -36.63640732 39.82215898 -37.7265625 41.13671875 Z " fill="#000000" transform="translate(353.7265625,179.86328125)"/>
<path d="M0 0 C6.6752034 -0.02526945 13.35039457 -0.04283268 20.02563477 -0.05493164 C22.29842591 -0.05997325 24.5712138 -0.06680637 26.84399414 -0.07543945 C30.10303551 -0.08751261 33.36203417 -0.09322987 36.62109375 -0.09765625 C37.64400009 -0.10281754 38.66690643 -0.10797882 39.72080994 -0.11329651 C40.66170975 -0.11337204 41.60260956 -0.11344757 42.57202148 -0.11352539 C43.40475082 -0.115746 44.23748016 -0.11796661 45.09544373 -0.12025452 C47 0 47 0 48 1 C48 5.29 48 9.58 48 14 C32.49 14.33 16.98 14.66 1 15 C0.67 18.96 0.34 22.92 0 27 C1.41853271 26.99476318 2.83706543 26.98952637 4.29858398 26.98413086 C9.54092787 26.96608691 14.783269 26.95457022 20.02563477 26.94506836 C22.29842591 26.94002675 24.5712138 26.93319363 26.84399414 26.92456055 C30.10303551 26.91248739 33.36203417 26.90677013 36.62109375 26.90234375 C37.64400009 26.89718246 38.66690643 26.89202118 39.72080994 26.88670349 C40.66170975 26.88662796 41.60260956 26.88655243 42.57202148 26.88647461 C43.40475082 26.884254 44.23748016 26.88203339 45.09544373 26.87974548 C47 27 47 27 48 28 C48.09873816 29.99799572 48.12971799 31.99957158 48.125 34 C48.12886719 35.6396875 48.12886719 35.6396875 48.1328125 37.3125 C48 40 48 40 47 41 C45.52645652 41.09304018 44.04849409 41.11746265 42.57202148 41.11352539 C41.63112167 41.11344986 40.69022186 41.11337433 39.72080994 41.11329651 C38.69790359 41.10813522 37.67499725 41.10297394 36.62109375 41.09765625 C35.57929459 41.0962413 34.53749542 41.09482635 33.46412659 41.09336853 C30.12188906 41.0877508 26.77971743 41.0751953 23.4375 41.0625 C21.17773534 41.05748728 18.91796963 41.05292398 16.65820312 41.04882812 C11.10544318 41.03777561 5.55273278 41.0204991 0 41 C0 44.96 0 48.92 0 53 C1.41853271 52.99476318 2.83706543 52.98952637 4.29858398 52.98413086 C9.54092787 52.96608691 14.783269 52.95457022 20.02563477 52.94506836 C22.29842591 52.94002675 24.5712138 52.93319363 26.84399414 52.92456055 C30.10303551 52.91248739 33.36203417 52.90677013 36.62109375 52.90234375 C37.64400009 52.89718246 38.66690643 52.89202118 39.72080994 52.88670349 C40.66170975 52.88662796 41.60260956 52.88655243 42.57202148 52.88647461 C43.40475082 52.884254 44.23748016 52.88203339 45.09544373 52.87974548 C47 53 47 53 48 54 C48 58.29 48 62.58 48 67 C31.83 67 15.66 67 -1 67 C-1.33 65.35 -1.66 63.7 -2 62 C-4.31 61.34 -6.62 60.68 -9 60 C-9.33 58.02 -9.66 56.04 -10 54 C-12.31 54 -14.62 54 -17 54 C-18.57234898 50.85530205 -18.16296406 47.48782965 -18.16796875 44.03515625 C-18.17129715 43.24604355 -18.17462555 42.45693085 -18.17805481 41.64390564 C-18.18312098 39.97362858 -18.18546323 38.30334138 -18.18530273 36.63305664 C-18.18748832 34.07616515 -18.20564446 31.51970568 -18.22460938 28.96289062 C-18.22754352 27.34114731 -18.22952818 25.71940195 -18.23046875 24.09765625 C-18.23765427 23.33195816 -18.24483978 22.56626007 -18.25224304 21.77735901 C-18.23586757 17.97672227 -18.16057776 16.24086665 -16 13 C-12.875 12.3125 -12.875 12.3125 -10 12 C-9.67 10.35 -9.34 8.7 -9 7 C-5.535 6.505 -5.535 6.505 -2 6 C-1.34 4.02 -0.68 2.04 0 0 Z " fill="#000000" transform="translate(385,206)"/>
<path d="M0 0 C10.23 0 20.46 0 31 0 C31.66 1.98 32.32 3.96 33 6 C36.52451159 7.46022435 36.52451159 7.46022435 40 8 C40 9.65 40 11.3 40 13 C41.423125 12.9690625 41.423125 12.9690625 42.875 12.9375 C46 13 46 13 48 14 C48 27.2 48 40.4 48 54 C44.535 54.495 44.535 54.495 41 55 C40.34 56.98 39.68 58.96 39 61 C36.69 61 34.38 61 32 61 C32 62.98 32 64.96 32 67 C21.11 67 10.22 67 -1 67 C-1.33 65.35 -1.66 63.7 -2 62 C-4.31 61.34 -6.62 60.68 -9 60 C-9.33 58.35 -9.66 56.7 -10 55 C-11.7015625 54.814375 -11.7015625 54.814375 -13.4375 54.625 C-14.613125 54.41875 -15.78875 54.2125 -17 54 C-18.57234898 50.85530205 -18.16296406 47.48782965 -18.16796875 44.03515625 C-18.17129715 43.24604355 -18.17462555 42.45693085 -18.17805481 41.64390564 C-18.18312098 39.97362858 -18.18546323 38.30334138 -18.18530273 36.63305664 C-18.18748832 34.07616515 -18.20564446 31.51970568 -18.22460938 28.96289062 C-18.22754352 27.34114731 -18.22952818 25.71940195 -18.23046875 24.09765625 C-18.23765427 23.33195816 -18.24483978 22.56626007 -18.25224304 21.77735901 C-18.23586757 17.97672227 -18.16057776 16.24086665 -16 13 C-12.875 12.3125 -12.875 12.3125 -10 12 C-9.67 10.35 -9.34 8.7 -9 7 C-5.535 6.505 -5.535 6.505 -2 6 C-1.34 4.02 -0.68 2.04 0 0 Z M0 15 C-0.08861992 17.8116338 -0.11522355 20.59858255 -0.09765625 23.41015625 C-0.0962413 24.25219101 -0.09482635 25.09422577 -0.09336853 25.96177673 C-0.08775263 28.66205335 -0.07519748 31.36224828 -0.0625 34.0625 C-0.05748705 35.88867068 -0.05292379 37.71484266 -0.04882812 39.54101562 C-0.03862716 44.02740085 -0.01905499 48.51360855 0 53 C10.23 53 20.46 53 31 53 C31.02290785 47.60647411 31.04283526 42.21311579 31.05493164 36.81958008 C31.05997231 34.98331125 31.06680477 33.14704646 31.07543945 31.31079102 C31.08751672 28.67723599 31.09323081 26.04373384 31.09765625 23.41015625 C31.10281754 22.58411392 31.10797882 21.75807159 31.11329651 20.90699768 C31.11349205 18.93763632 31.06204152 16.96838386 31 15 C29.14285943 13.14285943 26.07492951 13.86951319 23.59375 13.8671875 C21.64275391 13.86525391 21.64275391 13.86525391 19.65234375 13.86328125 C18.63116455 13.86642334 18.63116455 13.86642334 17.58935547 13.86962891 C15.50871485 13.8749776 13.42829011 13.8696832 11.34765625 13.86328125 C10.04699219 13.86457031 8.74632812 13.86585938 7.40625 13.8671875 C6.20291016 13.86831543 4.99957031 13.86944336 3.75976562 13.87060547 C1.09015518 13.68544023 1.09015518 13.68544023 0 15 Z " fill="#000000" transform="translate(248,206)"/>
<path d="M0 0 C5.61 0 11.22 0 17 0 C17 26.07 17 52.14 17 79 C27.23 79 37.46 79 48 79 C51.30823887 82.30823887 49 88.32144372 49 93 C38.11 93 27.22 93 16 93 C16 91.02 16 89.04 16 87 C13.69 87 11.38 87 9 87 C8.01 84.03 8.01 84.03 7 81 C4.69 80.67 2.38 80.34 0 80 C0 53.6 0 27.2 0 0 Z " fill="#000000" transform="translate(436,180)"/>
<path d="M0 0 C0.33 0.99 0.66 1.98 1 3 C-0.4375 5.6875 -0.4375 5.6875 -2 8 C-1.34 8 -0.68 8 0 8 C0.33 8.99 0.66 9.98 1 11 C3.99587647 13.77395969 7.12032356 14.85373196 11 16 C7.91190305 17.76462683 6.76687864 18 3 18 C2.01 17.67 1.02 17.34 0 17 C0 19.64 0 22.28 0 25 C1.65 25.33 3.3 25.66 5 26 C5 26.66 5 27.32 5 28 C5.5775 28.103125 6.155 28.20625 6.75 28.3125 C9.32049158 29.09792798 10.93657284 30.30504197 13 32 C13.598125 31.360625 14.19625 30.72125 14.8125 30.0625 C17 28 17 28 20 27 C20.33 26.01 20.66 25.02 21 24 C21.66 24 22.32 24 23 24 C23 24.66 23 25.32 23 26 C23.66 26 24.32 26 25 26 C24.773125 25.236875 24.54625 24.47375 24.3125 23.6875 C24.209375 22.800625 24.10625 21.91375 24 21 C25.4375 19.1875 25.4375 19.1875 27 18 C27.36923077 24.4 27.36923077 24.4 25.5 27.4375 C25.005 27.953125 24.51 28.46875 24 29 C24.495 29.33 24.99 29.66 25.5 30 C27.45116026 32.60154701 27.54601934 34.85304433 27.41015625 38.0546875 C27 40 27 40 24.9375 42.5625 C21.10852228 44.43625505 19.06665724 44.12962701 15 43 C13.0625 41.4375 13.0625 41.4375 12 40 C11.649375 40.474375 11.29875 40.94875 10.9375 41.4375 C7.98941713 43.81498619 5.7455316 44 2 44 C-1 42 -1 42 -3 39 C-3 35.2544684 -2.81498619 33.01058287 -0.4375 30.0625 C0.2740625 29.5365625 0.2740625 29.5365625 1 29 C0.319375 28.319375 -0.36125 27.63875 -1.0625 26.9375 C-3 24 -3 24 -2.9375 20.375 C-2.05246381 17.18886973 -1.60015121 15.92185089 1 14 C0.319375 13.319375 -0.36125 12.63875 -1.0625 11.9375 C-3 9 -3 9 -2.875 5.3125 C-2 2 -2 2 0 0 Z " fill="#F6750B" transform="translate(79,300)"/>
<path d="M0 0 C2.4375 0.5 2.4375 0.5 4.3125 2.0625 C5.91029963 5.52439919 5.31501077 7.85495524 4.4375 11.5 C3.7775 12.16 3.1175 12.82 2.4375 13.5 C1.78982207 16.07061311 1.78982207 16.07061311 1.4375 18.5 C2.0975 18.5 2.7575 18.5 3.4375 18.5 C3.4375 19.82 3.4375 21.14 3.4375 22.5 C4.4275 22.5 5.4175 22.5 6.4375 22.5 C7.0975 20.52 7.7575 18.54 8.4375 16.5 C9.4275 16.83 10.4175 17.16 11.4375 17.5 C10.9115625 18.3971875 10.9115625 18.3971875 10.375 19.3125 C9.10445302 21.60813214 9.10445302 21.60813214 10.4375 24.5 C7.4375 25.5 7.4375 25.5 4.4375 24.5 C2.61089803 28.62148343 2.61089803 28.62148343 3.3125 32.875 C3.68375 33.41125 4.055 33.9475 4.4375 34.5 C6.4175 34.005 6.4175 34.005 8.4375 33.5 C4.4303075 41.78721513 4.4303075 41.78721513 1 44.25 C-2.60878193 44.60207629 -4.55096259 43.41643289 -7.5625 41.5 C-8.96185013 38.70129973 -8.81515405 36.59501208 -8.5625 33.5 C-7.3125 31.625 -7.3125 31.625 -5.5625 30.5 C-4.2425 30.5 -2.9225 30.5 -1.5625 30.5 C-1.5625 29.84 -1.5625 29.18 -1.5625 28.5 C-2.531875 28.520625 -3.50125 28.54125 -4.5 28.5625 C-7.5625 28.5 -7.5625 28.5 -8.5625 27.5 C-8.70365161 24.82941149 -8.60497107 22.17567762 -8.5625 19.5 C-7.9025 19.5 -7.2425 19.5 -6.5625 19.5 C-6.5625 18.84 -6.5625 18.18 -6.5625 17.5 C-5.9025 17.5 -5.2425 17.5 -4.5625 17.5 C-4.5625 15.85 -4.5625 14.2 -4.5625 12.5 C-5.2225 12.17 -5.8825 11.84 -6.5625 11.5 C-6.2325 10.84 -5.9025 10.18 -5.5625 9.5 C-8.5325 9.005 -8.5325 9.005 -11.5625 8.5 C-11.5625 7.84 -11.5625 7.18 -11.5625 6.5 C-10.82 6.2525 -10.0775 6.005 -9.3125 5.75 C-6.46478889 4.66536294 -6.46478889 4.66536294 -4.5625 2.375 C-2.5625 0.5 -2.5625 0.5 0 0 Z " fill="#FA7406" transform="translate(85.5625,165.5)"/>
<path d="M0 0 C0.99 0.33 1.98 0.66 3 1 C2.67 2.32 2.34 3.64 2 5 C3.65 5.33 5.3 5.66 7 6 C7 7.65 7 9.3 7 11 C6.34 11 5.68 11 5 11 C5.474375 11.763125 5.94875 12.52625 6.4375 13.3125 C8.8117105 17.39614206 9.09820204 19.48516941 8 24 C7.01 23.67 6.02 23.34 5 23 C5.33 22.34 5.66 21.68 6 21 C3.11424181 21.39803561 2.17810487 21.79009069 0.25 24.0625 C-0.1625 24.701875 -0.575 25.34125 -1 26 C-2.32 25.67 -3.64 25.34 -5 25 C-4.7834375 23.95199219 -4.7834375 23.95199219 -4.5625 22.8828125 C-4.376875 21.97273438 -4.19125 21.06265625 -4 20.125 C-3.814375 19.22007812 -3.62875 18.31515625 -3.4375 17.3828125 C-2.93980405 15.07592097 -2.93980405 15.07592097 -3 13 C-3.66 12.34 -4.32 11.68 -5 11 C-5.4375 7.625 -5.4375 7.625 -5 4 C-2.6875 1.5 -2.6875 1.5 0 0 Z " fill="#FA7206" transform="translate(37,196)"/>
<path d="M0 0 C2 2 2 2 2 5 C2.99 5.33 3.98 5.66 5 6 C2.375 11.75 2.375 11.75 -1 14 C-5.59422248 13.74940605 -8.58034502 13.14608258 -12 10 C-11.67 9.01 -11.34 8.02 -11 7 C-11 6.01 -11 5.02 -11 4 C-7.87350837 -0.37708828 -5.19641453 -0.57737939 0 0 Z " fill="#FA7504" transform="translate(57,165)"/>
<path d="M0 0 C0 0.66 0 1.32 0 2 C-0.78375 2.185625 -1.5675 2.37125 -2.375 2.5625 C-5.39376342 3.83961627 -5.39376342 3.83961627 -6.3125 7.625 C-6.6528125 9.295625 -6.6528125 9.295625 -7 11 C-6.34 11.33 -5.68 11.66 -5 12 C-3.66666667 12.66666667 -2.33333333 13.33333333 -1 14 C0.03125 14.495 1.0625 14.99 2.125 15.5 C5 17 5 17 7 19 C7.99 18.01 8.98 17.02 10 16 C8.68 14.02 7.36 12.04 6 10 C6.99 10.33 7.98 10.66 9 11 C9 11.66 9 12.32 9 13 C9.99 13.33 10.98 13.66 12 14 C12.33 15.65 12.66 17.3 13 19 C11.02 19.99 11.02 19.99 9 21 C9.33 23.64 9.66 26.28 10 29 C9.34 29 8.68 29 8 29 C7.67 28.34 7.34 27.68 7 27 C6.566875 27.495 6.13375 27.99 5.6875 28.5 C4 30 4 30 1 30 C2 28 2 28 5 27 C5 26.01 5 25.02 5 24 C4.01 24 3.02 24 2 24 C1.67 22.02 1.34 20.04 1 18 C-2.10551666 18 -3.35261084 18.5393715 -6 20 C-6.2502157 22.91634129 -6.2502157 22.91634129 -6 26 C-5.01 26.66 -4.02 27.32 -3 28 C-3 28.66 -3 29.32 -3 30 C-4.9375 29.625 -4.9375 29.625 -7 29 C-8.58512383 25.82975235 -8.42372144 22.45332972 -8 19 C-6.5 17 -6.5 17 -5 16 C-5.7115625 15.13375 -5.7115625 15.13375 -6.4375 14.25 C-8.01090627 11.98429497 -8.75210745 10.7268181 -9 8 C-7.39073737 2.50168602 -5.89443111 0 0 0 Z " fill="#EF7D19" transform="translate(84,194)"/>
<path d="M0 0 C0.66 0 1.32 0 2 0 C1.625 1.9375 1.625 1.9375 1 4 C0.01 4.495 0.01 4.495 -1 5 C-1.16677282 8.41656024 -1.16677282 8.41656024 -1 12 C1.5654594 14.5654594 3.47686668 14.54046087 7 15 C7.2165625 13.824375 7.2165625 13.824375 7.4375 12.625 C8 10 8 10 9 8 C9 6.68 9 5.36 9 4 C8.34 4 7.68 4 7 4 C7.33 3.34 7.66 2.68 8 2 C8.99 2.99 9.98 3.98 11 5 C11.45375 4.505 11.9075 4.01 12.375 3.5 C14 2 14 2 16 2 C16 3.65 16 5.3 16 7 C15.01 7.33 14.02 7.66 13 8 C13.66 8.66 14.32 9.32 15 10 C14.625 12.125 14.625 12.125 14 14 C15.3303125 14.1546875 15.3303125 14.1546875 16.6875 14.3125 C20.0573702 15.01190702 22.17271538 16.08742511 25 18 C24.67 18.99 24.34 19.98 24 21 C22.68 20.01 21.36 19.02 20 18 C16.93449408 18.98958997 16.93449408 18.98958997 14 21 C13.02126462 24.59385054 13.02126462 24.59385054 13 28 C12.34 27.67 11.68 27.34 11 27 C10.63369844 23.06225823 10.69766797 21.43460229 13 18.125 C13.66 17.42375 14.32 16.7225 15 16 C13.68 15.01 12.36 14.02 11 13 C10.67 13.495 10.34 13.99 10 14.5 C7.27499291 16.54375532 5.20682712 16.43035904 1.87109375 16.27734375 C0 16 0 16 -1.9375 14.9375 C-3.61876207 11.87166917 -3.94080378 9.49257702 -4 6 C-2.1875 2.5625 -2.1875 2.5625 0 0 Z " fill="#ED7B1C" transform="translate(20,238)"/>
<path d="M0 0 C3.875 1.75 3.875 1.75 5 4 C5.35294118 10.47058824 5.35294118 10.47058824 3 14 C2.34 14 1.68 14 1 14 C1 14.66 1 15.32 1 16 C1.99 16.33 2.98 16.66 4 17 C5.52491998 20.04983996 5.23562548 22.6423369 5 26 C3.5 27.9375 3.5 27.9375 2 29 C1.67 28.34 1.34 27.68 1 27 C1.66 27 2.32 27 3 27 C2.67 25.35 2.34 23.7 2 22 C0.35 21.67 -1.3 21.34 -3 21 C-2.67 19.68 -2.34 18.36 -2 17 C-4.45631001 17.49547543 -4.45631001 17.49547543 -7 19 C-8.34776978 21.27962623 -9.11364216 23.48087772 -10 26 C-10.77321882 23.01758453 -11.41196203 20.02419525 -12 17 C-11.01 17.33 -10.02 17.66 -9 18 C-8.34 16.68 -7.68 15.36 -7 14 C-7.66 13.01 -8.32 12.02 -9 11 C-8.16855469 11.25136719 -8.16855469 11.25136719 -7.3203125 11.5078125 C-6.59585938 11.71148437 -5.87140625 11.91515625 -5.125 12.125 C-4.40570313 12.33382812 -3.68640625 12.54265625 -2.9453125 12.7578125 C-2.30335937 12.83773437 -1.66140625 12.91765625 -1 13 C-0.34 12.34 0.32 11.68 1 11 C1.66 11.33 2.32 11.66 3 12 C2.34 10.35 1.68 8.7 1 7 C1.66 7 2.32 7 3 7 C3 5.68 3 4.36 3 3 C2.01 2.67 1.02 2.34 0 2 C0 1.34 0 0.68 0 0 Z " fill="#F37912" transform="translate(41,180)"/>
<path d="M0 0 C0.33 0.99 0.66 1.98 1 3 C-0.4375 5.6875 -0.4375 5.6875 -2 8 C-1.34 8 -0.68 8 0 8 C0.33 8.99 0.66 9.98 1 11 C3.99587647 13.77395969 7.12032356 14.85373196 11 16 C7.91190305 17.76462683 6.76687864 18 3 18 C2.01 17.67 1.02 17.34 0 17 C0 19.64 0 22.28 0 25 C1.65 25.33 3.3 25.66 5 26 C5 26.66 5 27.32 5 28 C5.86625 28.0928125 5.86625 28.0928125 6.75 28.1875 C9.88690987 29.32027301 11.09167504 31.34197595 13 34 C11.68 34 10.36 34 9 34 C8.67 32.68 8.34 31.36 8 30 C6.906875 30.33 5.81375 30.66 4.6875 31 C1 32 1 32 -2 32 C-1.01 31.01 -0.02 30.02 1 29 C0.319375 28.319375 -0.36125 27.63875 -1.0625 26.9375 C-3 24 -3 24 -2.9375 20.375 C-2.05246381 17.18886973 -1.60015121 15.92185089 1 14 C0.319375 13.319375 -0.36125 12.63875 -1.0625 11.9375 C-3 9 -3 9 -2.875 5.3125 C-2 2 -2 2 0 0 Z " fill="#EE781A" transform="translate(79,300)"/>
<path d="M0 0 C0.33 0 0.66 0 1 0 C1.36923077 5.41538462 1.36923077 5.41538462 -0.5 8.375 C-0.995 8.91125 -1.49 9.4475 -2 10 C-1.67 10.66 -1.34 11.32 -1 12 C-3.31 11.67 -5.62 11.34 -8 11 C-8.309375 12.093125 -8.61875 13.18625 -8.9375 14.3125 C-9.58337897 16.55407994 -10.2623117 18.7869351 -11 21 C-10.34 21 -9.68 21 -9 21 C-8.67 22.32 -8.34 23.64 -8 25 C-9.98 23.68 -11.96 22.36 -14 21 C-14.66 21.33 -15.32 21.66 -16 22 C-16 20.68 -16 19.36 -16 18 C-15.34 18 -14.68 18 -14 18 C-12.09817446 13.61523784 -12.09817446 13.61523784 -11 9 C-11.66 8.01 -12.32 7.02 -13 6 C-11.68 6 -10.36 6 -9 6 C-6.73122465 3.58119071 -6.73122465 3.58119071 -5 1 C-3.68 1.33 -2.36 1.66 -1 2 C-1.33 2.66 -1.66 3.32 -2 4 C-1.34 4.33 -0.68 4.66 0 5 C0 3.35 0 1.7 0 0 Z " fill="#F87508" transform="translate(45,215)"/>
<path d="M0 0 C2.16874252 0.50603992 3.99967627 0.99983813 6 2 C5.814375 2.7425 5.62875 3.485 5.4375 4.25 C5.00796892 6.94990963 5.14877026 8.44631077 6 11 C5.34 11 4.68 11 4 11 C3.34 11.66 2.68 12.32 2 13 C-0.97 12.01 -3.94 11.02 -7 10 C-6.67 7.69 -6.34 5.38 -6 3 C-5.195625 2.87625 -4.39125 2.7525 -3.5625 2.625 C-2.716875 2.41875 -1.87125 2.2125 -1 2 C-0.67 1.34 -0.34 0.68 0 0 Z " fill="#FC7202" transform="translate(38,181)"/>
<path d="M0 0 C2.475 0.99 2.475 0.99 5 2 C4.85691406 2.56203125 4.71382812 3.1240625 4.56640625 3.703125 C3.98879098 6.04545453 3.45716693 8.39417659 2.9375 10.75 C2.67259766 11.94882813 2.67259766 11.94882813 2.40234375 13.171875 C2.26957031 13.77515625 2.13679688 14.3784375 2 15 C2.66 15 3.32 15 4 15 C4.33 16.32 4.66 17.64 5 19 C3.02 17.68 1.04 16.36 -1 15 C-1.99 15.495 -1.99 15.495 -3 16 C-3 14.68 -3 13.36 -3 12 C-2.34 12 -1.68 12 -1 12 C0.90182554 7.61523784 0.90182554 7.61523784 2 3 C1.34 2.01 0.68 1.02 0 0 Z " fill="#F37B11" transform="translate(32,221)"/>
<path d="M0 0 C0.88672454 2.4828287 1.14518218 3.62029277 0.1875 6.125 C-1 8 -1 8 -3 10 C-2.34 10.33 -1.68 10.66 -1 11 C-1.33 11.66 -1.66 12.32 -2 13 C-2.70125 12.62875 -3.4025 12.2575 -4.125 11.875 C-7.76443651 10.76734541 -9.55700411 11.55874591 -13 13 C-13 12.34 -13 11.68 -13 11 C-11.01860265 9.63242962 -8.94527788 8.49654964 -6.84765625 7.31640625 C-4.69032541 6.05288044 -4.69032541 6.05288044 -4 3 C-2.68 3 -1.36 3 0 3 C0 2.01 0 1.02 0 0 Z " fill="#EC7616" transform="translate(105,215)"/>
<path d="M0 0 C0.99 0.33 1.98 0.66 3 1 C3.75 3 3.75 3 4 5 C3.67 5.33 3.34 5.66 3 6 C3.309375 7.175625 3.309375 7.175625 3.625 8.375 C3.74875 9.24125 3.8725 10.1075 4 11 C2.5625 12.8125 2.5625 12.8125 1 14 C1.99 15.485 1.99 15.485 3 17 C1.68 16.67 0.36 16.34 -1 16 C-1.02725341 14.2709226 -1.04650987 12.54171824 -1.0625 10.8125 C-1.07410156 9.84957031 -1.08570312 8.88664063 -1.09765625 7.89453125 C-1.00486622 5.14423487 -0.62111685 2.67520409 0 0 Z " fill="#F7760C" transform="translate(86,225)"/>
<path d="M0 0 C0.99 0.33 1.98 0.66 3 1 C2.505 2.093125 2.01 3.18625 1.5 4.3125 C-0.18839906 7.79966245 -0.18839906 7.79966245 0 11 C-1.65 10.67 -3.3 10.34 -5 10 C-5.3125 7.25 -5.3125 7.25 -5 4 C-2.6875 1.5625 -2.6875 1.5625 0 0 Z " fill="#FB7304" transform="translate(37,196)"/>
<path d="M0 0 C0.99 0.66 1.98 1.32 3 2 C3.33388082 5.00492736 3.56215006 7.10640654 3 10 C1 12 1 12 -1 13 C-1 11.35 -1 9.7 -1 8 C-1.66 8 -2.32 8 -3 8 C-3.33 7.01 -3.66 6.02 -4 5 C-3.01 4.67 -2.02 4.34 -1 4 C-0.26676204 1.98491642 -0.26676204 1.98491642 0 0 Z " fill="#F27C13" transform="translate(43,241)"/>
<path d="M0 0 C0.99 0.33 1.98 0.66 3 1 C2.34 1.66 1.68 2.32 1 3 C2.32 3.99 3.64 4.98 5 6 C5.66 5.34 6.32 4.68 7 4 C7.25 6.75 7.25 6.75 7 10 C5 12.375 5 12.375 3 14 C2.731875 12.906875 2.46375 11.81375 2.1875 10.6875 C1.12336261 7.38307337 0.65345336 6.05039578 -2 4 C-1.34 2.68 -0.68 1.36 0 0 Z " fill="#F67510" transform="translate(27,207)"/>
<path d="M0 0 C2.375 1.5 2.375 1.5 4 3 C3.67 3.66 3.34 4.32 3 5 C2.34 4.34 1.68 3.68 1 3 C-1.68839385 2.73008094 -4.29141936 2.91262643 -7 3 C-7.66 4.65 -8.32 6.3 -9 8 C-9.99 8 -10.98 8 -12 8 C-12 6.68 -12 5.36 -12 4 C-12.66 4 -13.32 4 -14 4 C-13.67 3.01 -13.34 2.02 -13 1 C-11.515 1.99 -11.515 1.99 -10 3 C-9.46375 2.505 -8.9275 2.01 -8.375 1.5 C-5.31754465 -0.43102443 -3.561827 -0.44522837 0 0 Z " fill="#E67B27" transform="translate(101,180)"/>
<path d="M0 0 C0.66 1.32 1.32 2.64 2 4 C2.99 4 3.98 4 5 4 C5.33 4.66 5.66 5.32 6 6 C6.5775 5.690625 7.155 5.38125 7.75 5.0625 C9.84294184 4.07416636 11.74535275 3.4831387 14 3 C12.71937515 4.7074998 11.38232443 6.37373596 10 8 C9.34 8 8.68 8 8 8 C7.67 8.66 7.34 9.32 7 10 C6.01 10 5.02 10 4 10 C3.67 10.66 3.34 11.32 3 12 C2.34 12 1.68 12 1 12 C2.875 8.125 2.875 8.125 4 7 C3.34 6.401875 2.68 5.80375 2 5.1875 C0 3 0 3 0 0 Z " fill="#E97E20" transform="translate(76,277)"/>
<path d="M0 0 C-0.66 0 -1.32 0 -2 0 C-2 0.66 -2 1.32 -2 2 C-1.01 2.33 -0.02 2.66 1 3 C1 3.33 1 3.66 1 4 C-1.31 4.66 -3.62 5.32 -6 6 C-6.33 5.34 -6.66 4.68 -7 4 C-8.65 4.33 -10.3 4.66 -12 5 C-5.64705882 -1.88235294 -5.64705882 -1.88235294 0 0 Z " fill="#F27A16" transform="translate(104,313)"/>
<path d="M0 0 C0.78375 0.639375 1.5675 1.27875 2.375 1.9375 C4.79539281 3.98142313 4.79539281 3.98142313 7 5 C5.4375 6.5625 5.4375 6.5625 3 8 C-0.625 7.875 -0.625 7.875 -4 7 C-4.66 6.01 -5.32 5.02 -6 4 C-4.35 4 -2.7 4 -1 4 C-0.67 2.68 -0.34 1.36 0 0 Z " fill="#EB7716" transform="translate(98,336)"/>
<path d="M0 0 C0.66 0.33 1.32 0.66 2 1 C2.36681223 8.33624454 2.36681223 8.33624454 0.6875 11.375 C-1 13 -1 13 -4 15 C-4.33 13.35 -4.66 11.7 -5 10 C-3.68 10 -2.36 10 -1 10 C-1.20625 9.05125 -1.4125 8.1025 -1.625 7.125 C-1.74875 6.09375 -1.8725 5.0625 -2 4 C-1.34 3.34 -0.68 2.68 0 2 C0 1.34 0 0.68 0 0 Z " fill="#ED7815" transform="translate(44,227)"/>
<path d="M0 0 C3 1 3 1 4 3 C4.680625 2.2575 4.680625 2.2575 5.375 1.5 C7 0 7 0 9 0 C9 1.65 9 3.3 9 5 C8.01 5.33 7.02 5.66 6 6 C6.66 6.66 7.32 7.32 8 8 C7.01 8.33 6.02 8.66 5 9 C3.5 7.75 3.5 7.75 2 6 C2 4.68 2 3.36 2 2 C1.34 2 0.68 2 0 2 C0 1.34 0 0.68 0 0 Z " fill="#F17614" transform="translate(27,240)"/>
<path d="M0 0 C0.625 1.8125 0.625 1.8125 1 4 C0.34 4.99 -0.32 5.98 -1 7 C-0.34 7 0.32 7 1 7 C1 7.99 1 8.98 1 10 C1.99 10 2.98 10 4 10 C4.33 11.32 4.66 12.64 5 14 C3.68 14.99 2.36 15.98 1 17 C0.34 16.67 -0.32 16.34 -1 16 C-0.01 15.01 0.98 14.02 2 13 C1.319375 12.319375 0.63875 11.63875 -0.0625 10.9375 C-2 8 -2 8 -1.8125 4.25 C-1 1 -1 1 0 0 Z " fill="#E77C26" transform="translate(18,197)"/>
<path d="M0 0 C1.43088528 2.86177057 0.59991697 4.93375773 0 8 C-0.66 8 -1.32 8 -2 8 C-2.33 8.99 -2.66 9.98 -3 11 C-5.95664519 12.4783226 -8.74229737 12.06032783 -12 12 C-12 11.67 -12 11.34 -12 11 C-10.02 10.67 -8.04 10.34 -6 10 C-6 9.01 -6 8.02 -6 7 C-4.68 7 -3.36 7 -2 7 C-2.33 6.01 -2.66 5.02 -3 4 C-2.67 3.01 -2.34 2.02 -2 1 C-1.34 0.67 -0.68 0.34 0 0 Z " fill="#EE7A1F" transform="translate(62,257)"/>
<path d="M0 0 C1.27875 0.103125 2.5575 0.20625 3.875 0.3125 C4.95394531 0.39951172 4.95394531 0.39951172 6.0546875 0.48828125 C8 1 8 1 10 4 C8.6078125 3.9071875 8.6078125 3.9071875 7.1875 3.8125 C4.02209709 3.6685437 4.02209709 3.6685437 2.3125 5.5 C1.879375 5.995 1.44625 6.49 1 7 C0.01 7 -0.98 7 -2 7 C-1.67 6.401875 -1.34 5.80375 -1 5.1875 C0.20787988 2.94613529 0.20787988 2.94613529 0 0 Z " fill="#F07A18" transform="translate(93,193)"/>
<path d="M0 0 C3.875 1.75 3.875 1.75 5 4 C5.35294118 10.47058824 5.35294118 10.47058824 3 14 C2.34 14 1.68 14 1 14 C0.67 14.66 0.34 15.32 0 16 C0 14.35 0 12.7 0 11 C0.99 11.33 1.98 11.66 3 12 C2.34 10.35 1.68 8.7 1 7 C1.66 7 2.32 7 3 7 C3 5.68 3 4.36 3 3 C2.01 2.67 1.02 2.34 0 2 C0 1.34 0 0.68 0 0 Z " fill="#E77B22" transform="translate(41,180)"/>
<path d="M0 0 C2.475 0.99 2.475 0.99 5 2 C5 3.32 5 4.64 5 6 C4.38125 6.45375 3.7625 6.9075 3.125 7.375 C0.30761953 9.52946742 -0.10436793 11.64137973 -1 15 C-1.77321882 12.01758453 -2.41196203 9.02419525 -3 6 C-2.01 6.33 -1.02 6.66 0 7 C0.66 5.68 1.32 4.36 2 3 C1.34 2.01 0.68 1.02 0 0 Z " fill="#E67A22" transform="translate(32,191)"/>
<path d="M0 0 C3 1 3 1 4.25 2.6875 C5.26755614 5.82496476 4.87310237 7.84339914 4 11 C2.4375 12.875 2.4375 12.875 1 14 C0.01 13.67 -0.98 13.34 -2 13 C-2 12.34 -2 11.68 -2 11 C-0.68 10.67 0.64 10.34 2 10 C1.46274105 6.62294375 0.88935377 3.303314 0 0 Z " fill="#E5771C" transform="translate(101,240)"/>
<path d="M0 0 C1.32 0.33 2.64 0.66 4 1 C3.649375 1.61875 3.29875 2.2375 2.9375 2.875 C2.628125 3.57625 2.31875 4.2775 2 5 C2.33 5.66 2.66 6.32 3 7 C-1.455 6.01 -1.455 6.01 -6 5 C-6 4.34 -6 3.68 -6 3 C-4.02 3 -2.04 3 0 3 C0 2.01 0 1.02 0 0 Z " fill="#EE7C25" transform="translate(86,265)"/>
<path d="M0 0 C1.65 0 3.3 0 5 0 C5.33 0.99 5.66 1.98 6 3 C7.32 3 8.64 3 10 3 C10 3.66 10 4.32 10 5 C7.36 5.33 4.72 5.66 2 6 C2 5.01 2 4.02 2 3 C1.34 2.01 0.68 1.02 0 0 Z " fill="#F17D1B" transform="translate(17,191)"/>
<path d="M0 0 C0.99 0 1.98 0 3 0 C3 0.66 3 1.32 3 2 C3.66 2.33 4.32 2.66 5 3 C4.34 4.32 3.68 5.64 3 7 C1.35 7 -0.3 7 -2 7 C-1.67 6.21625 -1.34 5.4325 -1 4.625 C0.11866511 2.15667503 0.11866511 2.15667503 0 0 Z " fill="#F27916" transform="translate(34,177)"/>
<path d="M0 0 C2.0625 1.5625 2.0625 1.5625 4 4 C4 7.5625 4 7.5625 3 11 C0.9375 12.9375 0.9375 12.9375 -1 14 C-0.67 12.35 -0.34 10.7 0 9 C0.66 9 1.32 9 2 9 C1.34 6.03 0.68 3.06 0 0 Z " fill="#E27C29" transform="translate(87,166)"/>
<path d="M0 0 C0.33 0.99 0.66 1.98 1 3 C-0.4375 5.6875 -0.4375 5.6875 -2 8 C-1.34 8 -0.68 8 0 8 C0.66 9.65 1.32 11.3 2 13 C0.0625 12.4375 0.0625 12.4375 -2 11 C-2.9375 7.625 -2.9375 7.625 -3 4 C-1.5625 1.5625 -1.5625 1.5625 0 0 Z " fill="#E47B25" transform="translate(79,300)"/>
<path d="M0 0 C0.99 0.33 1.98 0.66 3 1 C3 1.66 3 2.32 3 3 C3.99 3.33 4.98 3.66 6 4 C6.33 5.65 6.66 7.3 7 9 C5.02 9.33 3.04 9.66 1 10 C1.99 8.68 2.98 7.36 4 6 C2.68 4.02 1.36 2.04 0 0 Z " fill="#E97A20" transform="translate(90,204)"/>
<path d="M0 0 C-0.33 1.32 -0.66 2.64 -1 4 C-2.32 4.33 -3.64 4.66 -5 5 C-5.99 3.35 -6.98 1.7 -8 0 C-4.94736336 -0.98120464 -3.05263664 -0.98120464 0 0 Z " fill="#F17815" transform="translate(40,206)"/>
<path d="M0 0 C1.32 0.33 2.64 0.66 4 1 C4 2.65 4 4.3 4 6 C3.34 6 2.68 6 2 6 C2 6.66 2 7.32 2 8 C1.34 8 0.68 8 0 8 C0 9.98 0 11.96 0 14 C-1.1875 12.375 -1.1875 12.375 -2 10 C-0.625 6.75 -0.625 6.75 1 4 C1.66 4 2.32 4 3 4 C3 3.34 3 2.68 3 2 C2.01 1.67 1.02 1.34 0 1 C0 0.67 0 0.34 0 0 Z " fill="#E77C21" transform="translate(77,177)"/>
<path d="M0 0 C2.64 0.33 5.28 0.66 8 1 C8 1.66 8 2.32 8 3 C8.99 3.33 9.98 3.66 11 4 C10.67 4.66 10.34 5.32 10 6 C9.01 5.67 8.02 5.34 7 5 C7 4.34 7 3.68 7 3 C5.02 3 3.04 3 1 3 C0.67 2.01 0.34 1.02 0 0 Z " fill="#F17B1F" transform="translate(94,297)"/>
<path d="M0 0 C2.9375 0.75 2.9375 0.75 6 2 C6.875 4.125 6.875 4.125 7 6 C6.01 5.67 5.02 5.34 4 5 C4 4.34 4 3.68 4 3 C3.34 3 2.68 3 2 3 C1.67 3.99 1.34 4.98 1 6 C0.34 5.67 -0.32 5.34 -1 5 C-0.67 3.35 -0.34 1.7 0 0 Z " fill="#EB771F" transform="translate(43,262)"/>
<path d="M0 0 C1.32 0 2.64 0 4 0 C6.25 2.5 6.25 2.5 8 5 C7.67 5.66 7.34 6.32 7 7 C5.35 5.68 3.7 4.36 2 3 C1.01 3.495 1.01 3.495 0 4 C0 2.68 0 1.36 0 0 Z " fill="#EB7A21" transform="translate(29,233)"/>
<path d="M0 0 C0.66 0.33 1.32 0.66 2 1 C1.01 2.485 1.01 2.485 0 4 C-0.39387788 6.32387947 -0.73486085 8.65793749 -1 11 C-1.66 10.67 -2.32 10.34 -3 10 C-3.36923077 4.58461538 -3.36923077 4.58461538 -1.5 1.625 C-1.005 1.08875 -0.51 0.5525 0 0 Z " fill="#E07C2C" transform="translate(34,255)"/>
<path d="M0 0 C1 2 1 2 0.44140625 4.1640625 C0.15136719 4.97617188 -0.13867188 5.78828125 -0.4375 6.625 C-0.72496094 7.44226563 -1.01242188 8.25953125 -1.30859375 9.1015625 C-1.53675781 9.72804687 -1.76492187 10.35453125 -2 11 C-2.66 10.01 -3.32 9.02 -4 8 C-3.15955106 4.56816682 -2.51471866 2.51471866 0 0 Z " fill="#EC701D" transform="translate(79,225)"/>
<path d="M0 0 C3.3 0 6.6 0 10 0 C9.01 1.485 9.01 1.485 8 3 C4.875 3.1875 4.875 3.1875 2 3 C2 2.34 2 1.68 2 1 C1.34 0.67 0.68 0.34 0 0 Z " fill="#F17D26" transform="translate(93,267)"/>
<path d="M0 0 C-0.33 1.32 -0.66 2.64 -1 4 C0.65 4 2.3 4 4 4 C4 4.33 4 4.66 4 5 C-2.52307692 5.36923077 -2.52307692 5.36923077 -4.9375 3.5 C-5.4634375 2.7575 -5.4634375 2.7575 -6 2 C-2.25 0 -2.25 0 0 0 Z " fill="#EC7B21" transform="translate(68,264)"/>
<path d="M0 0 C1.65 0.33 3.3 0.66 5 1 C3.9024777 3.99324263 3.32317108 4.84610901 0.375 6.25 C-0.40875 6.4975 -1.1925 6.745 -2 7 C-1.484375 6.21625 -0.96875 5.4325 -0.4375 4.625 C0.036875 3.75875 0.51125 2.8925 1 2 C0.67 1.34 0.34 0.68 0 0 Z " fill="#E67B26" transform="translate(78,252)"/>
<path d="M0 0 C1.32 0.66 2.64 1.32 4 2 C3.01 2.99 2.02 3.98 1 5 C1.99 6.485 1.99 6.485 3 8 C1.68 7.67 0.36 7.34 -1 7 C-0.67 4.69 -0.34 2.38 0 0 Z " fill="#EE7919" transform="translate(86,234)"/>
<path d="M0 0 C-3.28804981 2.91227269 -5.59885603 4.49701212 -10 5 C-8.20177069 -0.39468792 -5.09771267 -0.22656501 0 0 Z " fill="#E47C26" transform="translate(86,165)"/>
<path d="M0 0 C0.66 0.33 1.32 0.66 2 1 C2 2.65 2 4.3 2 6 C0.68 6 -0.64 6 -2 6 C-1.125 1.125 -1.125 1.125 0 0 Z " fill="#FC7201" transform="translate(88,334)"/>
<path d="M0 0 C-1.0975223 2.99324263 -1.67682892 3.84610901 -4.625 5.25 C-5.40875 5.4975 -6.1925 5.745 -7 6 C-6.75 3.625 -6.75 3.625 -6 1 C-2.69333333 -1.34666667 -2.69333333 -1.34666667 0 0 Z " fill="#EC771F" transform="translate(95,271)"/>
<path d="M0 0 C0.99 0.33 1.98 0.66 3 1 C2.34 1.66 1.68 2.32 1 3 C1.495 3.45375 1.99 3.9075 2.5 4.375 C4 6 4 6 4 8 C1.00667261 7.0022242 0.05233685 6.2477975 -2 4 C-1.34 2.68 -0.68 1.36 0 0 Z " fill="#EA8221" transform="translate(27,207)"/>
<path d="M0 0 C0.94875 0.04125 1.8975 0.0825 2.875 0.125 C1.555 0.455 0.235 0.785 -1.125 1.125 C-1.125 2.445 -1.125 3.765 -1.125 5.125 C-2.445 5.125 -3.765 5.125 -5.125 5.125 C-5.125 0.85616396 -4.22482433 0.16899297 0 0 Z " fill="#E8741D" transform="translate(53.125,164.875)"/>
<path d="M0 0 C0.33 0 0.66 0 1 0 C1.36666667 5.5 1.36666667 5.5 -0.375 7.875 C-2 9 -2 9 -4 9 C-3.67 7.35 -3.34 5.7 -3 4 C-2.01 4.33 -1.02 4.66 0 5 C0 3.35 0 1.7 0 0 Z " fill="#EC7919" transform="translate(45,215)"/>
<path d="M0 0 C1.5625 1.125 1.5625 1.125 3 3 C2.6875 6.1875 2.6875 6.1875 2 9 C1.67 7.68 1.34 6.36 1 5 C0.34 5 -0.32 5 -1 5 C-0.67 3.35 -0.34 1.7 0 0 Z " fill="#E5761C" transform="translate(103,197)"/>
<path d="M0 0 C0.99 0.33 1.98 0.66 3 1 C3 3.31 3 5.62 3 8 C1.5 6.8125 1.5 6.8125 0 5 C-0.1875 2.3125 -0.1875 2.3125 0 0 Z " fill="#EA7E26" transform="translate(16,215)"/>
<path d="M0 0 C1.485 0.99 1.485 0.99 3 2 C3 2.66 3 3.32 3 4 C3.99 3.67 4.98 3.34 6 3 C5.67 4.32 5.34 5.64 5 7 C4.01 7 3.02 7 2 7 C2 5.68 2 4.36 2 3 C1.34 3 0.68 3 0 3 C0 2.01 0 1.02 0 0 Z " fill="#EE771C" transform="translate(87,181)"/>
<path d="M0 0 C1.5625 1.25 1.5625 1.25 3 3 C2.6875 5.1875 2.6875 5.1875 2 7 C0 5.625 0 5.625 -2 4 C-2 3.34 -2 2.68 -2 2 C-1.34 2 -0.68 2 0 2 C0 1.34 0 0.68 0 0 Z " fill="#F17715" transform="translate(92,306)"/>
<path d="M0 0 C0.66 0.33 1.32 0.66 2 1 C0.68 2.65 -0.64 4.3 -2 6 C-2.99 5.67 -3.98 5.34 -5 5 C-4.67 3.68 -4.34 2.36 -4 1 C-3.67 1.66 -3.34 2.32 -3 3 C-2.01 2.01 -1.02 1.02 0 0 Z " fill="#E87A23" transform="translate(94,285)"/>
<path d="M0 0 C1.32 0 2.64 0 4 0 C3.67 1.65 3.34 3.3 3 5 C1.68 4.67 0.36 4.34 -1 4 C-0.34 3.34 0.32 2.68 1 2 C0.67 1.34 0.34 0.68 0 0 Z " fill="#EA7A1D" transform="translate(93,252)"/>
<path d="M0 0 C2.475 0.495 2.475 0.495 5 1 C5 2.65 5 4.3 5 6 C4.34 6 3.68 6 3 6 C2.01 4.02 1.02 2.04 0 0 Z " fill="#F96505" transform="translate(87,229)"/>
<path d="M0 0 C1.485 0.99 1.485 0.99 3 2 C3.1875 5.125 3.1875 5.125 3 8 C2.01 8.495 2.01 8.495 1 9 C0.67 6.03 0.34 3.06 0 0 Z " fill="#EF7A18" transform="translate(29,197)"/>
</svg>
