<?xml version="1.0" encoding="UTF-8"?>
<svg version="1.1" xmlns="http://www.w3.org/2000/svg" width="500" height="500">
<path d="M0 0 C2.31332486 3.46998729 2.33957563 4.92509248 2 9 C1.34 9.99 0.68 10.98 0 12 C-0.66 12 -1.32 12 -2 12 C-0.68 13.65 0.64 15.3 2 17 C2.53625 16.34 3.0725 15.68 3.625 15 C6 13 6 13 8.9375 12.4375 C13.05629585 13.19401352 14.50115585 14.69270628 17 18 C17.5625 20.5 17.5625 20.5 17 23 C15 25.8125 15 25.8125 13 28 C13.680625 28.70125 14.36125 29.4025 15.0625 30.125 C17 33 17 33 16.9375 36.125 C16.01111203 38.96592312 15.31752588 40.18628409 13 42 C13.680625 42.70125 14.36125 43.4025 15.0625 44.125 C17 47 17 47 16.9375 50.0625 C16.01288243 52.95963504 15.00095857 54.73804684 13 57 C13.474375 57.37125 13.94875 57.7425 14.4375 58.125 C16.6351705 60.7622046 16.93170718 62.58535902 17 66 C15.0625 68.875 15.0625 68.875 13 71 C13.680625 71.70125 14.36125 72.4025 15.0625 73.125 C17 76 17 76 16.9375 79.0625 C16.01288243 81.95963504 15.00095857 83.73804684 13 86 C13.474375 86.37125 13.94875 86.7425 14.4375 87.125 C16.60270411 89.72324494 16.86321065 91.64866084 17 95 C15.6875 97.375 15.6875 97.375 14 99 C13.34 99 12.68 99 12 99 C12 99.66 12 100.32 12 101 C12.639375 101.20625 13.27875 101.4125 13.9375 101.625 C16 103 16 103 16.875 105.875 C17.0028272 109.07068007 16.81573725 110.41974181 15 113 C14.01 113.495 14.01 113.495 13 114 C13.99 114.7734375 13.99 114.7734375 15 115.5625 C17 118 17 118 17.375 121.5625 C17 125 17 125 15 128 C14.34 128 13.68 128 13 128 C13.66 128.680625 14.32 129.36125 15 130.0625 C17.48980198 133.71939665 17.55310065 135.65420914 17 140 C15.5 142.4375 15.5 142.4375 14 144 C14.495 144.33 14.99 144.66 15.5 145 C17.46436837 147.61915783 17.41101967 149.85090676 17.3046875 153.05859375 C16.89639174 155.66017056 15.84391446 157.15608554 14 159 C14.495 159.350625 14.99 159.70125 15.5 160.0625 C17.82091376 163.06034694 17.45113866 165.32644233 17 169 C15.4375 171.5 15.4375 171.5 13 173 C9.31864501 172.93541482 6.96838114 172.78095253 4.0625 170.4375 C3.711875 169.963125 3.36125 169.48875 3 169 C2.319375 169.680625 1.63875 170.36125 0.9375 171.0625 C-2 173 -2 173 -5.625 173 C-9 172 -9 172 -11 170.375 C-12.45935975 166.90902058 -11.90063398 164.60253592 -11 161 C-9.4375 158.5625 -9.4375 158.5625 -8 157 C-8.66 157 -9.32 157 -10 157 C-12.32749345 153.50875983 -12.50299316 152.10777749 -12 148 C-10 145.625 -10 145.625 -8 144 C-8.66 143.484375 -9.32 142.96875 -10 142.4375 C-12 140 -12 140 -12.5 136.5625 C-11.93237649 132.5181825 -10.80548184 130.89315314 -8 128 C-8.66 128 -9.32 128 -10 128 C-12.32749345 124.50875983 -12.50299316 123.10777749 -12 119 C-10 116.625 -10 116.625 -8 115 C-8.639375 114.443125 -9.27875 113.88625 -9.9375 113.3125 C-12.26539021 110.70244128 -12.91518274 109.47750746 -13 106 C-11.5625 103.3125 -11.5625 103.3125 -10 101 C-9.81509993 98.67642489 -9.81509993 98.67642489 -12 96 C-12.7734375 96.99 -12.7734375 96.99 -13.5625 98 C-16 100 -16 100 -19.4375 100.5 C-23.4818175 99.93237649 -25.10684686 98.80548184 -28 96 C-28.495 97.485 -28.495 97.485 -29 99 C-31.84083641 100.42041821 -33.85477278 100.31452272 -37 100 C-39.375 98 -39.375 98 -41 96 C-41.7734375 96.99 -41.7734375 96.99 -42.5625 98 C-45 100 -45 100 -48.5 100.5 C-52 100 -52 100 -54.4375 98.375 C-56.47073755 95.28447892 -56.52040677 93.64284739 -56 90 C-54.5 87.125 -54.5 87.125 -53 85 C-53.99 84.01 -54.98 83.02 -56 82 C-56.70125 82.680625 -57.4025 83.36125 -58.125 84.0625 C-61 86 -61 86 -64.125 85.9375 C-67.05956406 84.98057694 -68.2855743 84.52652208 -70 82 C-70.875 79.625 -70.875 79.625 -71 77 C-69.6875 74.1875 -69.6875 74.1875 -68 72 C-67.34 72 -66.68 72 -66 72 C-66 71.34 -66 70.68 -66 70 C-67.32 69.34 -68.64 68.68 -70 68 C-70.36923077 60.61538462 -70.36923077 60.61538462 -68.5 57.5 C-68.005 57.005 -67.51 56.51 -67 56 C-67.495 55.67 -67.99 55.34 -68.5 55 C-70.88179561 51.82427253 -70.19168226 48.89753934 -70 45 C-68.68 44.34 -67.36 43.68 -66 43 C-66 42.34 -66 41.68 -66 41 C-67.32 40.34 -68.64 39.68 -70 39 C-70.36923077 31.61538462 -70.36923077 31.61538462 -68.5 28.5 C-68.005 28.005 -67.51 27.51 -67 27 C-67.474375 26.5875 -67.94875 26.175 -68.4375 25.75 C-70.24345568 23.72732964 -70.76234011 22.69347874 -71 20 C-69.91970563 16.2189697 -69.35693737 15.23795825 -66 13 C-63.0625 12.625 -63.0625 12.625 -60 13 C-57.625 15 -57.625 15 -56 17 C-54.68 15.35 -53.36 13.7 -52 12 C-52.66 12 -53.32 12 -54 12 C-56.32749345 8.50875983 -56.50299316 7.10777749 -56 3 C-54.4375 0.625 -54.4375 0.625 -52 -1 C-48.11959911 -1.48505011 -45.9238388 -1.56851618 -42.5625 0.5 C-42.046875 0.995 -41.53125 1.49 -41 2 C-40.67 1.505 -40.34 1.01 -40 0.5 C-36.82427253 -1.88179561 -33.89753934 -1.19168226 -30 -1 C-29.34 0.32 -28.68 1.64 -28 3 C-27.34 3 -26.68 3 -26 3 C-25.67 2.01 -25.34 1.02 -25 0 C-21.94306678 -1.52846661 -19.37015453 -1.23242445 -16 -1 C-13.5625 0.5 -13.5625 0.5 -12 2 C-11.566875 1.525625 -11.13375 1.05125 -10.6875 0.5625 C-6.98260333 -2.86795988 -4.2920394 -1.82639974 0 0 Z M-13 8 C-13.5259375 8.99 -13.5259375 8.99 -14.0625 10 C-16 12 -16 12 -19.5 12.4375 C-23.12132641 11.9848342 -23.83932847 11.7292693 -26 9 C-26.66 9 -27.32 9 -28 9 C-28.391875 9.495 -28.78375 9.99 -29.1875 10.5 C-31 12 -31 12 -34.4375 12.375 C-38.07356189 11.99225664 -39.4146657 11.48192093 -42 9 C-43.32 10.65 -44.64 12.3 -46 14 C-45.319375 14.515625 -44.63875 15.03125 -43.9375 15.5625 C-42 18 -42 18 -42.0625 21.5625 C-42.9441463 24.79520311 -43.3705089 26.0564631 -46 28 C-45.01 28.33 -44.02 28.66 -43 29 C-41.55391121 35.98942918 -41.55391121 35.98942918 -42.82421875 38.8671875 C-43.9375 40.5 -43.9375 40.5 -46 43 C-45.319375 43.515625 -44.63875 44.03125 -43.9375 44.5625 C-42 47 -42 47 -42.0625 50.5625 C-42.9441463 53.79520311 -43.3705089 55.0564631 -46 57 C-45.01 57.33 -44.02 57.66 -43 58 C-41.55391121 64.98942918 -41.55391121 64.98942918 -42.82421875 67.8671875 C-43.9375 69.5 -43.9375 69.5 -46 72 C-45.34 72.556875 -44.68 73.11375 -44 73.6875 C-42 76 -42 76 -41.6875 78.5625 C-42 81 -42 81 -43 84 C-44.485 84.495 -44.485 84.495 -46 85 C-45.67 85.66 -45.34 86.32 -45 87 C-44.34 87 -43.68 87 -43 87 C-42.67 87.99 -42.34 88.98 -42 90 C-41.13375 89.319375 -40.2675 88.63875 -39.375 87.9375 C-36 86 -36 86 -32.75 86.0625 C-30 87 -30 87 -28 90 C-27.34 90 -26.68 90 -26 90 C-25.566875 89.525625 -25.13375 89.05125 -24.6875 88.5625 C-22.4958162 86.53316315 -20.9468131 86.28749396 -18 86 C-15.8125 86.1875 -15.8125 86.1875 -14 87 C-12.75 89.0625 -12.75 89.0625 -12 91 C-11.896875 90.360625 -11.79375 89.72125 -11.6875 89.0625 C-11.460625 88.381875 -11.23375 87.70125 -11 87 C-10.01 86.67 -9.02 86.34 -8 86 C-8.33 85.34 -8.66 84.68 -9 84 C-9.66 84 -10.32 84 -11 84 C-12.05719237 78.71403813 -12.05719237 78.71403813 -12 76 C-10.0625 73.625 -10.0625 73.625 -8 72 C-8 71.34 -8 70.68 -8 70 C-8.99 69.34 -9.98 68.68 -11 68 C-11.91788262 64.48144994 -12.51125075 61.40031419 -11 58 C-10.01 57.67 -9.02 57.34 -8 57 C-8.33 56.34 -8.66 55.68 -9 55 C-9.66 55 -10.32 55 -11 55 C-12.22159091 48.64772727 -12.22159091 48.64772727 -11.1875 45.625 C-10 44 -10 44 -8 43 C-8 42.34 -8 41.68 -8 41 C-8.99 40.34 -9.98 39.68 -11 39 C-11.9375 36.25 -11.9375 36.25 -12 33 C-10.0625 29.625 -10.0625 29.625 -8 27 C-8.99 26.67 -9.98 26.34 -11 26 C-12.22370937 19.63671128 -12.22370937 19.63671128 -11.1875 16.6875 C-10 15 -10 15 -8 13 C-10.475 10.525 -10.475 10.525 -13 8 Z M-56 23 C-57.32 24.65 -58.64 26.3 -60 28 C-58.63676257 30.0399719 -58.63676257 30.0399719 -57 32 C-56.34 32 -55.68 32 -55 32 C-53.61767557 30.37373596 -52.28062485 28.7074998 -51 27 C-52.65 25.68 -54.3 24.36 -56 23 Z M2 23 C0.68 24.65 -0.64 26.3 -2 28 C-0.63676257 30.0399719 -0.63676257 30.0399719 1 32 C3.12364481 32.22609337 3.12364481 32.22609337 4.625 30.5 C5.305625 29.7575 5.305625 29.7575 6 29 C4.84826645 26.53199953 3.95216435 24.95216435 2 23 Z M-58.625 39.5 C-59.07875 39.995 -59.5325 40.49 -60 41 C-59.67 41.99 -59.34 42.98 -59 44 C-58.34 44 -57.68 44 -57 44 C-56.67 44.99 -56.34 45.98 -56 47 C-54.35 45.35 -52.7 43.7 -51 42 C-51.99 41.67 -52.98 41.34 -54 41 C-54.33 40.01 -54.66 39.02 -55 38 C-57.12364481 37.77390663 -57.12364481 37.77390663 -58.625 39.5 Z M-0.625 39.5 C-1.07875 39.995 -1.5325 40.49 -2 41 C-1.34 42.32 -0.68 43.64 0 45 C3.87797662 45.43386092 3.87797662 45.43386092 5.75 43.5 C6.1625 43.005 6.575 42.51 7 42 C5.71034824 40.62437146 4.37310707 39.29233607 3 38 C0.87635519 37.77390663 0.87635519 37.77390663 -0.625 39.5 Z M-56 52 C-57.65 53.65 -59.3 55.3 -61 57 C-59.71034824 58.37562854 -58.37310707 59.70766393 -57 61 C-56.34 61 -55.68 61 -55 61 C-53.61767557 59.37373596 -52.28062485 57.7074998 -51 56 C-52.65 54.68 -54.3 53.36 -56 52 Z M1 52 C-0.38232443 53.62626404 -1.71937515 55.2925002 -3 57 C-1.71034824 58.37562854 -0.37310707 59.70766393 1 61 C1.66 61 2.32 61 3 61 C4.38232443 59.37373596 5.71937515 57.7074998 7 56 C5.71034824 54.62437146 4.37310707 53.29233607 3 52 C2.34 52 1.68 52 1 52 Z M-58.625 68.375 C-60.21531408 69.89968321 -60.21531408 69.89968321 -60 72 C-58.37373596 73.38232443 -56.7074998 74.71937515 -55 76 C-52.65712582 73.32752366 -52.65712582 73.32752366 -52 70 C-52.66 70 -53.32 70 -54 70 C-54.33 69.01 -54.66 68.02 -55 67 C-57.10031679 66.78468592 -57.10031679 66.78468592 -58.625 68.375 Z M-0.625 68.5 C-1.07875 68.995 -1.5325 69.49 -2 70 C-1.67 70.99 -1.34 71.98 -1 73 C-0.34 73 0.32 73 1 73 C1 73.66 1 74.32 1 75 C1.66 75 2.32 75 3 75 C3 74.34 3 73.68 3 73 C3.99 72.67 4.98 72.34 6 72 C6.21531408 69.89968321 6.21531408 69.89968321 4.625 68.375 C2.33996708 66.44151061 1.5745866 66.46961237 -0.625 68.5 Z M1 81 C-0.6446674 83.46326712 -0.6446674 83.46326712 -2 86 C-0.63676257 88.0399719 -0.63676257 88.0399719 1 90 C1.66 90 2.32 90 3 90 C4.38232443 88.37373596 5.71937515 86.7074998 7 85 C5.71034824 83.62437146 4.37310707 82.29233607 3 81 C2.34 81 1.68 81 1 81 Z M-0.625 97.5 C-1.07875 97.995 -1.5325 98.49 -2 99 C-1.34 100.32 -0.68 101.64 0 103 C1.32 103 2.64 103 4 103 C4.66 101.68 5.32 100.36 6 99 C4.62514468 97.45833358 4.62514468 97.45833358 3 96 C0.87635519 95.77390663 0.87635519 95.77390663 -0.625 97.5 Z M1 110 C-0.38232443 111.62626404 -1.71937515 113.2925002 -3 115 C-0.03 116.98 -0.03 116.98 3 119 C4.32 117.35 5.64 115.7 7 114 C5.71034824 112.62437146 4.37310707 111.29233607 3 110 C2.34 110 1.68 110 1 110 Z M2 125 C0.68 126.65 -0.64 128.3 -2 130 C0.475 131.98 0.475 131.98 3 134 C4.32 132.35 5.64 130.7 7 129 C5.35 127.68 3.7 126.36 2 125 Z M2 139 C0.64172029 140.64639965 -0.69254251 142.31295807 -2 144 C0.475 145.98 0.475 145.98 3 148 C4.32 146.35 5.64 144.7 7 143 C6.01 142.67 5.02 142.34 4 142 C3.67 141.01 3.34 140.02 3 139 C2.67 139 2.34 139 2 139 Z M2 154 C0.68 155.65 -0.64 157.3 -2 159 C0.475 160.98 0.475 160.98 3 163 C4.32 161.35 5.64 159.7 7 158 C5.35 156.68 3.7 155.36 2 154 Z " fill="#F47309" transform="translate(96,169)"/>
<path d="M0 0 C0.70253906 0.00386719 1.40507812 0.00773438 2.12890625 0.01171875 C2.83144531 0.00785156 3.53398437 0.00398437 4.2578125 0 C9.50229247 0.01010497 9.50229247 0.01010497 10.62890625 1.13671875 C10.73447242 3.49894093 10.77569123 5.83207259 10.77416992 8.19506836 C10.77752853 8.93327316 10.78088715 9.67147797 10.78434753 10.43205261 C10.79388507 12.88440613 10.79580204 15.33669157 10.796875 17.7890625 C10.80008564 19.4867811 10.80344956 21.18449941 10.80696106 22.88221741 C10.81295935 26.44581748 10.81480024 30.00939328 10.81420898 33.57299805 C10.81410732 38.14764919 10.82776045 42.72214525 10.84498119 47.29675961 C10.85607969 50.80453715 10.85812886 54.31227696 10.85759926 57.82007027 C10.85878259 59.5070302 10.86322403 61.19399102 10.87093163 62.88093376 C10.88068834 65.237059 10.87787078 67.59284433 10.87182617 69.94897461 C10.87744568 70.65086914 10.88306519 71.35276367 10.88885498 72.07592773 C10.85722202 76.90840298 10.85722202 76.90840298 8.62890625 79.13671875 C5.50390625 79.26171875 5.50390625 79.26171875 2.62890625 79.13671875 C2.64953125 79.94109375 2.67015625 80.74546875 2.69140625 81.57421875 C2.62890625 84.13671875 2.62890625 84.13671875 1.62890625 85.13671875 C-0.70406808 85.17764812 -3.038146 85.17913598 -5.37109375 85.13671875 C-5.37109375 87.11671875 -5.37109375 89.09671875 -5.37109375 91.13671875 C-15.93109375 91.13671875 -26.49109375 91.13671875 -37.37109375 91.13671875 C-37.70109375 89.48671875 -38.03109375 87.83671875 -38.37109375 86.13671875 C-45.30109375 85.64171875 -45.30109375 85.64171875 -52.37109375 85.13671875 C-52.37109375 86.78671875 -52.37109375 88.43671875 -52.37109375 90.13671875 C-54.27959323 92.04521823 -57.68588149 91.26731508 -60.21484375 91.26953125 C-60.89913452 91.27048798 -61.58342529 91.2714447 -62.28845215 91.27243042 C-63.73771252 91.27311205 -65.18697593 91.27125898 -66.63623047 91.26708984 C-68.86172303 91.26174127 -71.08701376 91.26703535 -73.3125 91.2734375 C-74.71744836 91.27277672 -76.1223966 91.27149555 -77.52734375 91.26953125 C-78.81447266 91.26840332 -80.10160156 91.26727539 -81.42773438 91.26611328 C-84.37109375 91.13671875 -84.37109375 91.13671875 -85.37109375 90.13671875 C-85.41173207 88.4705476 -85.41381475 86.8028378 -85.37109375 85.13671875 C-86.50546875 85.15734375 -87.63984375 85.17796875 -88.80859375 85.19921875 C-92.37109375 85.13671875 -92.37109375 85.13671875 -93.37109375 84.13671875 C-93.41173207 82.4705476 -93.41381475 80.8028378 -93.37109375 79.13671875 C-94.31984375 79.17796875 -95.26859375 79.21921875 -96.24609375 79.26171875 C-99.37109375 79.13671875 -99.37109375 79.13671875 -101.37109375 77.13671875 C-101.61833191 75.04943848 -101.61833191 75.04943848 -101.61401367 72.44335938 C-101.6170903 71.46894897 -101.62016693 70.49453857 -101.62333679 69.49060059 C-101.61615128 68.43538208 -101.60896576 67.38016357 -101.6015625 66.29296875 C-101.60087517 64.67291931 -101.60087517 64.67291931 -101.60017395 63.0201416 C-101.59714908 60.73363142 -101.58925584 58.44712335 -101.5769043 56.16064453 C-101.55866948 52.65129331 -101.55639442 49.1422061 -101.55664062 45.6328125 C-101.55172475 43.41536229 -101.54589613 41.19791388 -101.5390625 38.98046875 C-101.53794968 37.92525024 -101.53683685 36.87003174 -101.53569031 35.78283691 C-101.52931046 34.80842651 -101.5229306 33.83401611 -101.51635742 32.83007812 C-101.51254562 31.97007202 -101.50873383 31.11006592 -101.50480652 30.22399902 C-101.37109375 28.13671875 -101.37109375 28.13671875 -100.37109375 26.13671875 C-97.89185574 26.1098678 -95.41290535 26.08995328 -92.93359375 26.07421875 C-92.22654297 26.06583984 -91.51949219 26.05746094 -90.79101562 26.04882812 C-88.98415816 26.04018287 -87.17721772 26.08451864 -85.37109375 26.13671875 C-83.74501739 27.76279511 -84.20518444 29.5935494 -84.16577148 31.84008789 C-84.14582626 32.84104996 -84.12588104 33.84201202 -84.10533142 34.87330627 C-84.08861893 35.96183395 -84.07190643 37.05036163 -84.0546875 38.171875 C-84.0339064 39.2802623 -84.01312531 40.3886496 -83.99171448 41.53062439 C-83.92609752 45.08675683 -83.86727779 48.64296578 -83.80859375 52.19921875 C-83.76542007 54.60352368 -83.72180617 57.00782074 -83.67773438 59.41210938 C-83.5695718 65.3202351 -83.47058865 71.22841515 -83.37109375 77.13671875 C-73.80109375 77.13671875 -64.23109375 77.13671875 -54.37109375 77.13671875 C-54.04109375 60.30671875 -53.71109375 43.47671875 -53.37109375 26.13671875 C-48.09109375 26.13671875 -42.81109375 26.13671875 -37.37109375 26.13671875 C-37.04109375 42.96671875 -36.71109375 59.79671875 -36.37109375 77.13671875 C-26.80109375 77.13671875 -17.23109375 77.13671875 -7.37109375 77.13671875 C-7.3460376 74.83968994 -7.32098145 72.54266113 -7.29516602 70.17602539 C-7.21185704 62.60430313 -7.12315024 55.03265113 -7.03175449 47.46102238 C-6.9764841 42.86832697 -6.92305766 38.27562525 -6.8737793 33.68286133 C-6.82619628 29.25432544 -6.77385594 24.82586946 -6.718153 20.39742851 C-6.69770188 18.70408544 -6.67899345 17.01072044 -6.66201973 15.31733894 C-6.63803647 12.95374712 -6.60797409 10.59030771 -6.57641602 8.22680664 C-6.57066055 7.51974579 -6.56490509 6.81268494 -6.55897522 6.084198 C-6.46743798 0.09147534 -5.98116169 0.0115244 0 0 Z " fill="#FEFEFD" transform="translate(221.37109375,180.86328125)"/>
<path d="M0 0 C5.28 0 10.56 0 16 0 C16 25.74 16 51.48 16 78 C12.535 78.495 12.535 78.495 9 79 C8.67 80.98 8.34 82.96 8 85 C5.69 85 3.38 85 1 85 C1.020625 85.804375 1.04125 86.60875 1.0625 87.4375 C1 90 1 90 0 91 C-2.27947792 91.1002093 -4.56207135 91.13081303 -6.84375 91.1328125 C-7.52804077 91.13376923 -8.21233154 91.13472595 -8.9173584 91.13571167 C-10.36661877 91.1363933 -11.81588218 91.13454023 -13.26513672 91.13037109 C-15.49062928 91.12502252 -17.71592001 91.1303166 -19.94140625 91.13671875 C-21.34635461 91.13605797 -22.75130285 91.1347768 -24.15625 91.1328125 C-25.44337891 91.13168457 -26.73050781 91.13055664 -28.05664062 91.12939453 C-31 91 -31 91 -32 90 C-32.04063832 88.33382885 -32.042721 86.66611905 -32 85 C-33.134375 85.020625 -34.26875 85.04125 -35.4375 85.0625 C-39 85 -39 85 -40 84 C-40.04063832 82.33382885 -40.042721 80.66611905 -40 79 C-40.94875 79.04125 -41.8975 79.0825 -42.875 79.125 C-46 79 -46 79 -48 77 C-48.18750246 74.298457 -48.25564881 71.70130708 -48.23046875 69 C-48.23001053 68.20851563 -48.22955231 67.41703125 -48.2290802 66.6015625 C-48.22605731 64.9270681 -48.2181699 63.25257652 -48.20581055 61.578125 C-48.18757326 59.01031569 -48.18530072 56.44286726 -48.18554688 53.875 C-48.18063094 52.24999687 -48.17480229 50.6249962 -48.16796875 49 C-48.16685593 48.22914063 -48.1657431 47.45828125 -48.16459656 46.6640625 C-48.11606989 41.23213978 -48.11606989 41.23213978 -47 39 C-44.69 39 -42.38 39 -40 39 C-40.04125 38.21625 -40.0825 37.4325 -40.125 36.625 C-40 34 -40 34 -38 32 C-34.875 31.875 -34.875 31.875 -32 32 C-32.020625 31.195625 -32.04125 30.39125 -32.0625 29.5625 C-32 27 -32 27 -31 26 C-28.78312006 25.84126045 -26.56144702 25.74866163 -24.33984375 25.68359375 C-23.34314415 25.6524221 -23.34314415 25.6524221 -22.3263092 25.62062073 C-20.19681457 25.55506342 -18.06719332 25.49621215 -15.9375 25.4375 C-14.49673153 25.39432061 -13.05597601 25.35070651 -11.61523438 25.30664062 C-8.07695097 25.19855473 -4.53857603 25.09952907 -1 25 C-0.67 16.75 -0.34 8.5 0 0 Z M-31 40 C-31.02290839 45.25111196 -31.04283563 50.50205178 -31.05493164 55.75317383 C-31.05997218 57.54094021 -31.06680454 59.32870245 -31.07543945 61.11645508 C-31.0875173 63.68051168 -31.09323094 66.24451397 -31.09765625 68.80859375 C-31.10281754 69.6127623 -31.10797882 70.41693085 -31.11329651 71.24546814 C-31.11349215 73.16401715 -31.06201983 75.08245368 -31 77 C-29.14285943 78.85714057 -26.07492951 78.13048681 -23.59375 78.1328125 C-21.64275391 78.13474609 -21.64275391 78.13474609 -19.65234375 78.13671875 C-18.63116455 78.13357666 -18.63116455 78.13357666 -17.58935547 78.13037109 C-15.50871485 78.1250224 -13.42829011 78.1303168 -11.34765625 78.13671875 C-10.04699219 78.13542969 -8.74632812 78.13414062 -7.40625 78.1328125 C-6.20291016 78.13168457 -4.99957031 78.13055664 -3.75976562 78.12939453 C-1.09015518 78.31455977 -1.09015518 78.31455977 0 77 C0.08858646 74.26105915 0.11523479 71.5474673 0.09765625 68.80859375 C0.09553383 67.57883568 0.09553383 67.57883568 0.09336853 66.32423401 C0.08775289 63.69528618 0.07519779 61.06642227 0.0625 58.4375 C0.05748701 56.65950643 0.05292376 54.88151154 0.04882812 53.10351562 C0.03862752 48.73561842 0.01905532 44.3679036 0 40 C-10.23 40 -20.46 40 -31 40 Z " fill="#FEFEFD" transform="translate(349,181)"/>
<path d="M0 0 C0.83272934 0.00222061 1.66545868 0.00444122 2.52342224 0.00672913 C3.46432205 0.00680466 4.40522186 0.00688019 5.37463379 0.00695801 C6.39754013 0.01211929 7.42044647 0.01728058 8.47434998 0.02259827 C9.51614914 0.02401321 10.5579483 0.02542816 11.63131714 0.02688599 C14.97355467 0.03250372 18.31572629 0.04505922 21.65794373 0.05775452 C23.91770839 0.06276723 26.17747409 0.06733053 28.4372406 0.07142639 C33.98999763 0.08247891 39.54271597 0.09923428 45.09544373 0.12025452 C45.12230311 2.26602088 45.1417746 4.41188097 45.15794373 6.55775452 C45.16954529 7.75271545 45.18114685 8.94767639 45.19309998 10.17884827 C45.09544373 13.12025452 45.09544373 13.12025452 44.09544373 14.12025452 C42.65254586 14.21321267 41.20514588 14.23771965 39.75926208 14.23377991 C38.3779435 14.23366661 38.3779435 14.23366661 36.96871948 14.23355103 C35.96768692 14.22838974 34.96665436 14.22322845 33.93528748 14.21791077 C32.91568436 14.21649582 31.89608124 14.21508087 30.84558105 14.21362305 C27.57467265 14.20800548 24.30383159 14.19545002 21.03294373 14.18275452 C18.82135617 14.17774178 16.60976754 14.17317848 14.3981781 14.16908264 C8.96390718 14.15803035 3.52968689 14.14075395 -1.90455627 14.12025452 C-1.57455627 17.75025452 -1.24455627 21.38025452 -0.90455627 25.12025452 C14.27544373 25.45025452 29.45544373 25.78025452 45.09544373 26.12025452 C45.09544373 30.41025452 45.09544373 34.70025452 45.09544373 39.12025452 C44.09544373 40.12025452 44.09544373 40.12025452 42.22885132 40.24050903 C41.41388687 40.23828842 40.59892242 40.23606781 39.75926208 40.23377991 C38.3779435 40.23366661 38.3779435 40.23366661 36.96871948 40.23355103 C35.96768692 40.22838974 34.96665436 40.22322845 33.93528748 40.21791077 C32.91568436 40.21649582 31.89608124 40.21508087 30.84558105 40.21362305 C27.57467265 40.20800548 24.30383159 40.19545002 21.03294373 40.18275452 C18.82135617 40.17774178 16.60976754 40.17317848 14.3981781 40.16908264 C8.96390718 40.15803035 3.52968689 40.14075395 -1.90455627 40.12025452 C-1.57455627 43.75025452 -1.24455627 47.38025452 -0.90455627 51.12025452 C14.27544373 51.45025452 29.45544373 51.78025452 45.09544373 52.12025452 C45.09544373 56.41025452 45.09544373 60.70025452 45.09544373 65.12025452 C29.25544373 65.12025452 13.41544373 65.12025452 -2.90455627 65.12025452 C-2.90455627 63.14025452 -2.90455627 61.16025452 -2.90455627 59.12025452 C-4.60611877 59.15119202 -4.60611877 59.15119202 -6.34205627 59.18275452 C-9.90455627 59.12025452 -9.90455627 59.12025452 -10.90455627 58.12025452 C-10.9451946 56.45408337 -10.94727728 54.78637357 -10.90455627 53.12025452 C-11.85330627 53.16150452 -12.80205627 53.20275452 -13.77955627 53.24525452 C-16.90455627 53.12025452 -16.90455627 53.12025452 -18.90455627 51.12025452 C-19.09205874 48.41871152 -19.16020509 45.82156159 -19.13502502 43.12025452 C-19.1345668 42.32877014 -19.13410858 41.53728577 -19.13363647 40.72181702 C-19.13061359 39.04732261 -19.12272617 37.37283104 -19.11036682 35.69837952 C-19.09212954 33.1305702 -19.089857 30.56312178 -19.09010315 27.99525452 C-19.08518721 26.37025139 -19.07935856 24.74525071 -19.07252502 23.12025452 C-19.0714122 22.34939514 -19.07029938 21.57853577 -19.06915283 20.78431702 C-19.02062616 15.3523943 -19.02062616 15.3523943 -17.90455627 13.12025452 C-15.59455627 13.12025452 -13.28455627 13.12025452 -10.90455627 13.12025452 C-10.90455627 11.14025452 -10.90455627 9.16025452 -10.90455627 7.12025452 C-8.19576292 5.76585784 -5.8952236 6.05524001 -2.90455627 6.12025452 C-2.92518127 5.31587952 -2.94580627 4.51150452 -2.96705627 3.68275452 C-2.8816708 0.18194996 -2.8816708 0.18194996 0 0 Z " fill="#FEFEFE" transform="translate(386.90455627441406,206.87974548339844)"/>
<path d="M0 0 C4.39656173 -0.02465504 8.7930872 -0.04283842 13.18969727 -0.05493164 C14.68644918 -0.05997121 16.18319616 -0.06680287 17.67993164 -0.07543945 C19.82699807 -0.08752159 21.97399962 -0.09323191 24.12109375 -0.09765625 C26.06133423 -0.10551147 26.06133423 -0.10551147 28.04077148 -0.11352539 C31 0 31 0 32 1 C32.04063832 2.66617115 32.042721 4.33388095 32 6 C33.7015625 5.9690625 33.7015625 5.9690625 35.4375 5.9375 C39 6 39 6 40 7 C40.04080783 8.99958364 40.04254356 11.00045254 40 13 C41.7015625 12.9690625 41.7015625 12.9690625 43.4375 12.9375 C47 13 47 13 48 14 C48.11340974 16.71554392 48.1641802 19.40470043 48.16796875 22.12109375 C48.17296135 23.3437368 48.17296135 23.3437368 48.17805481 24.59107971 C48.18312742 26.31860793 48.18546303 28.04614598 48.18530273 29.77368164 C48.18748792 32.42285245 48.20563621 35.07160616 48.22460938 37.72070312 C48.22754344 39.3958319 48.22952815 41.07096267 48.23046875 42.74609375 C48.23765427 43.54196396 48.24483978 44.33783417 48.25224304 45.15782166 C48.22882227 50.77117773 48.22882227 50.77117773 46 53 C42.875 53.125 42.875 53.125 40 53 C40.020625 53.804375 40.04125 54.60875 40.0625 55.4375 C40 58 40 58 39 59 C36.66702567 59.04092937 34.33294775 59.04241723 32 59 C32 60.98 32 62.96 32 65 C21.44 65 10.88 65 0 65 C-0.33 63.02 -0.66 61.04 -1 59 C-3.31 59 -5.62 59 -8 59 C-8 57.02 -8 55.04 -8 53 C-8.94875 53.020625 -9.8975 53.04125 -10.875 53.0625 C-14 53 -14 53 -16 52 C-16 39.13 -16 26.26 -16 13 C-12.535 12.505 -12.535 12.505 -9 12 C-8.34 10.02 -7.68 8.04 -7 6 C-5.02 6 -3.04 6 -1 6 C-0.67 4.02 -0.34 2.04 0 0 Z M0 15 C-0.10095564 17.65456193 -0.13970998 20.28255176 -0.1328125 22.9375 C-0.13376923 23.732771 -0.13472595 24.52804199 -0.13571167 25.34741211 C-0.13639343 27.0320646 -0.13453943 28.71671971 -0.13037109 30.40136719 C-0.12502275 32.98899197 -0.13031619 35.57644316 -0.13671875 38.1640625 C-0.13605797 39.79687539 -0.1347768 41.42968816 -0.1328125 43.0625 C-0.13483673 43.84165771 -0.13686096 44.62081543 -0.13894653 45.42358398 C-0.4583958 49.007942 -0.4583958 49.007942 1 52 C3.13353174 52.10003289 5.27037542 52.13081048 7.40625 52.1328125 C9.35724609 52.13474609 9.35724609 52.13474609 11.34765625 52.13671875 C12.36883545 52.13357666 12.36883545 52.13357666 13.41064453 52.13037109 C15.49128515 52.1250224 17.57170989 52.1303168 19.65234375 52.13671875 C20.95300781 52.13542969 22.25367188 52.13414062 23.59375 52.1328125 C24.79708984 52.13168457 26.00042969 52.13055664 27.24023438 52.12939453 C29.90984482 52.31455977 29.90984482 52.31455977 31 51 C31.08858646 48.26105915 31.11523479 45.5474673 31.09765625 42.80859375 C31.09553383 41.57883568 31.09553383 41.57883568 31.09336853 40.32423401 C31.08775289 37.69528618 31.07519779 35.06642227 31.0625 32.4375 C31.05748701 30.65950643 31.05292376 28.88151154 31.04882812 27.10351562 C31.03777839 22.73564455 31.02050331 18.36783652 31 14 C26.74585377 13.97534378 22.49174502 13.95716101 18.23754883 13.94506836 C16.78929927 13.94002899 15.34105483 13.93319747 13.89282227 13.92456055 C11.81525412 13.91247753 9.73775303 13.90676789 7.66015625 13.90234375 C6.40855713 13.89710693 5.15695801 13.89187012 3.86743164 13.88647461 C1.10267706 13.67112965 1.10267706 13.67112965 0 15 Z " fill="#FDFDFD" transform="translate(251,207)"/>
<path d="M0 0 C0.70253906 0.00386719 1.40507812 0.00773438 2.12890625 0.01171875 C2.83144531 0.00785156 3.53398437 0.00398437 4.2578125 0 C9.50229247 0.01010497 9.50229247 0.01010497 10.62890625 1.13671875 C10.75377579 3.50873422 10.81490677 5.85312218 10.83422852 8.22680664 C10.84412811 8.96822403 10.85402771 9.70964142 10.86422729 10.473526 C10.89593091 12.93544268 10.92063451 15.39737868 10.9453125 17.859375 C10.96587439 19.5618898 10.98687065 21.2643994 11.00828552 22.96690369 C11.06358524 27.45659184 11.11295953 31.94632667 11.16113281 36.43609619 C11.21129031 41.01408053 11.26700633 45.59199678 11.32226562 50.16992188 C11.42994378 59.15879826 11.53085375 68.14773221 11.62890625 77.13671875 C26.47890625 77.63171875 26.47890625 77.63171875 41.62890625 78.13671875 C41.62890625 82.42671875 41.62890625 86.71671875 41.62890625 91.13671875 C31.06890625 91.13671875 20.50890625 91.13671875 9.62890625 91.13671875 C9.62890625 89.15671875 9.62890625 87.17671875 9.62890625 85.13671875 C8.49453125 85.15734375 7.36015625 85.17796875 6.19140625 85.19921875 C2.62890625 85.13671875 2.62890625 85.13671875 1.62890625 84.13671875 C1.58826793 82.4705476 1.58618525 80.8028378 1.62890625 79.13671875 C0.68015625 79.15734375 -0.26859375 79.17796875 -1.24609375 79.19921875 C-4.37109375 79.13671875 -4.37109375 79.13671875 -6.37109375 78.13671875 C-6.39421785 68.11444112 -6.41200918 58.09216978 -6.42290592 48.06987095 C-6.4281346 43.41660689 -6.43523198 38.76336101 -6.4465332 34.11010742 C-6.45736261 29.62327329 -6.4633707 25.13645671 -6.46597099 20.64961052 C-6.46782515 18.93391582 -6.47144557 17.21822213 -6.47682381 15.50253487 C-6.48403496 13.10786962 -6.48508466 10.71327779 -6.48461914 8.31860352 C-6.48821442 7.60219193 -6.49180969 6.88578033 -6.49551392 6.1476593 C-6.48273504 0.11209618 -6.0258496 0.0116105 0 0 Z " fill="#FDFDFD" transform="translate(441.37109375,180.86328125)"/>
<path d="M0 0 C0.33 0.99 0.66 1.98 1 3 C0.34 3 -0.32 3 -1 3 C-0.88455718 7.08564325 -0.88455718 7.08564325 0 11 C2.91841857 13.08632697 2.91841857 13.08632697 6 14 C6.33 13.01 6.66 12.02 7 11 C7.66 11 8.32 11 9 11 C9 9.02 9 7.04 9 5 C9.66 4.67 10.32 4.34 11 4 C11.25 9.625 11.25 9.625 9 13 C8.34 13 7.68 13 7 13 C7.66 13.680625 8.32 14.36125 9 15.0625 C11.48980198 18.71939665 11.55310065 20.65420914 11 25 C9.5 27.375 9.5 27.375 8 29 C8 29.33 8 29.66 8 30 C5.03 30.33 2.06 30.66 -1 31 C-0.67 30.01 -0.34 29.02 0 28 C-0.680625 27.484375 -1.36125 26.96875 -2.0625 26.4375 C-4 24 -4 24 -3.9375 20.4375 C-3.0558537 17.20479689 -2.6294911 15.9435369 0 14 C-1.32 13.01 -2.64 12.02 -4 11 C-4.99 11.495 -4.99 11.495 -6 12 C-6 11.01 -6 10.02 -6 9 C-5.34 9 -4.68 9 -4 9 C-4.0825 8.2575 -4.165 7.515 -4.25 6.75 C-3.92894816 3.21842973 -2.64734383 2.23369636 0 0 Z " fill="#E0721A" transform="translate(102,284)"/>
<path d="M0 0 C2.31332486 3.46998729 2.33957563 4.92509248 2 9 C1.01 10.485 1.01 10.485 0 12 C-0.66 12 -1.32 12 -2 12 C-1.34 13.32 -0.68 14.64 0 16 C-2.01822917 15.96744792 -4.03645833 15.93489583 -6.0546875 15.90234375 C-8.08185404 15.87350758 -8.08185404 15.87350758 -10 17 C-10.07427838 20.34252724 -10.06546953 22.8035914 -9 26 C-9.66 26 -10.32 26 -11 26 C-12.70401547 23.39385869 -13.00613718 22.10024068 -12.8125 18.9375 C-11.9940468 15.97847688 -11.37339853 14.85744232 -9 13 C-10.32 12.01 -11.64 11.02 -13 10 C-13.350625 10.495 -13.70125 10.99 -14.0625 11.5 C-16.99435344 13.76982201 -19.40895535 13.3264586 -23 13 C-23.66 12.34 -24.32 11.68 -25 11 C-22.36 11.33 -19.72 11.66 -17 12 C-17 11.01 -17 10.02 -17 9 C-16.01 9 -15.02 9 -14 9 C-13.731875 7.906875 -13.46375 6.81375 -13.1875 5.6875 C-11.6478376 0.90644307 -11.6478376 0.90644307 -9 -1 C-5.18652885 -2.27115705 -3.64026964 -1.54905091 0 0 Z " fill="#ED7410" transform="translate(96,169)"/>
<path d="M0 0 C0.9075 0.309375 1.815 0.61875 2.75 0.9375 C4.35875 1.4634375 4.35875 1.4634375 6 2 C6.70125 2.268125 7.4025 2.53625 8.125 2.8125 C10.85905257 3.08590526 11.89300109 1.6460929 14 0 C15.32 0 16.64 0 18 0 C18 0.66 18 1.32 18 2 C19.32 2.33 20.64 2.66 22 3 C22 5.64 22 8.28 22 11 C15.375 12.125 15.375 12.125 12 11 C11.67 10.34 11.34 9.68 11 9 C9.35636866 8.27840576 7.68949614 7.60648579 6 7 C6 8.32 6 9.64 6 11 C5.01 11 4.02 11 3 11 C3 11.66 3 12.32 3 13 C2.01 13 1.02 13 0 13 C0 12.34 0 11.68 0 11 C-0.66 11 -1.32 11 -2 11 C-1.34 7.37 -0.68 3.74 0 0 Z " fill="#FB7203" transform="translate(31,183)"/>
<path d="M0 0 C2.375 2 2.375 2 4 4 C0.30581799 4 -1.77836178 2.71820705 -5 1 C-4.938125 2.3303125 -4.938125 2.3303125 -4.875 3.6875 C-4.99897246 6.97277013 -5.61387904 9.05449295 -7 12 C-6.34 12 -5.68 12 -5 12 C-5 12.66 -5 13.32 -5 14 C-4.01 14 -3.02 14 -2 14 C-2 13.34 -2 12.68 -2 12 C-1.01 12 -0.02 12 1 12 C1 10.68 1 9.36 1 8 C2.98 8.66 4.96 9.32 7 10 C7 10.66 7 11.32 7 12 C10.3 12 13.6 12 17 12 C16.01 13.485 16.01 13.485 15 15 C15.66 15.33 16.32 15.66 17 16 C16.67 16.66 16.34 17.32 16 18 C15.13375 17.690625 15.13375 17.690625 14.25 17.375 C11.43553751 16.90592292 10.42462646 17.59215238 8 19 C7.01 19.33 6.02 19.66 5 20 C5.33 21.98 5.66 23.96 6 26 C5.01 25.67 4.02 25.34 3 25 C2.67 25.99 2.34 26.98 2 28 C1.34 27.67 0.68 27.34 0 27 C0.33 26.67 0.66 26.34 1 26 C1.07148199 24.64756083 1.08399454 23.29165633 1.0625 21.9375 C1.041875 20.638125 1.02125 19.33875 1 18 C0.34 17.67 -0.32 17.34 -1 17 C-1 16.34 -1 15.68 -1 15 C-1.763125 15.33 -2.52625 15.66 -3.3125 16 C-6 17 -6 17 -9 17 C-8.34 16.01 -7.68 15.02 -7 14 C-7.474375 13.5875 -7.94875 13.175 -8.4375 12.75 C-10.24345568 10.72732964 -10.76234011 9.69347874 -11 7 C-9.26890903 0.94118159 -6.20589747 -0.75990581 0 0 Z M4 10 C2.68 11.65 1.36 13.3 0 15 C1.36323743 17.0399719 1.36323743 17.0399719 3 19 C3.66 19 4.32 19 5 19 C6.38232443 17.37373596 7.71937515 15.7074998 9 14 C7.35 12.68 5.7 11.36 4 10 Z " fill="#E2751A" transform="translate(36,182)"/>
<path d="M0 0 C0.99 0.33 1.98 0.66 3 1 C2.46375 1.7425 1.9275 2.485 1.375 3.25 C0.92125 4.1575 0.4675 5.065 0 6 C0.69140351 8.30287793 0.69140351 8.30287793 2 10 C2.66 10 3.32 10 4 10 C4.33 9.01 4.66 8.02 5 7 C6 9 6 9 5.0625 12.125 C4.711875 13.07375 4.36125 14.0225 4 15 C5.32 15.33 6.64 15.66 8 16 C8.25 18.8125 8.25 18.8125 8 22 C6 23.875 6 23.875 4 25 C5.5 22 5.5 22 7 19 C6.34 19 5.68 19 5 19 C3.3125 17.8125 3.3125 17.8125 2 16 C2.3125 13.3125 2.3125 13.3125 3 11 C2.2575 11.350625 1.515 11.70125 0.75 12.0625 C-2.23754099 13.08097988 -3.10081055 12.9352224 -6 12 C-7.32 12 -8.64 12 -10 12 C-8.60240095 15.54518884 -8.60240095 15.54518884 -7 19 C-8.32 18.34 -9.64 17.68 -11 17 C-11.36923077 9.61538462 -11.36923077 9.61538462 -9.5 6.5 C-9.005 6.005 -8.51 5.51 -8 5 C-8.66 4.34 -9.32 3.68 -10 3 C-8.72125 2.87625 -7.4425 2.7525 -6.125 2.625 C-2.65209064 2.30957601 -2.65209064 2.30957601 0 0 Z " fill="#F67004" transform="translate(37,220)"/>
<path d="M0 0 C0.66 0 1.32 0 2 0 C2.33 1.65 2.66 3.3 3 5 C4.32 5.33 5.64 5.66 7 6 C7.33 5.01 7.66 4.02 8 3 C10.0625 2.3125 10.0625 2.3125 12 2 C12 2.66 12 3.32 12 4 C14.31 4.33 16.62 4.66 19 5 C20.125 10.75 20.125 10.75 19 13 C15.9375 13.625 15.9375 13.625 13 14 C13 13.34 13 12.68 13 12 C9.58343976 11.83322718 9.58343976 11.83322718 6 12 C5.34 12.66 4.68 13.32 4 14 C3.01 14.495 3.01 14.495 2 15 C2.66 17.31 3.32 19.62 4 22 C3.34 22 2.68 22 2 22 C0.29300828 19.38930678 -0.00187288 18.04682188 0.125 14.875 C1 12 1 12 3.0625 10.625 C3.701875 10.41875 4.34125 10.2125 5 10 C5 9.34 5 8.68 5 8 C4.360625 7.79375 3.72125 7.5875 3.0625 7.375 C1 6 1 6 0.25 2.875 C0.1675 1.92625 0.085 0.9775 0 0 Z M12.375 6.5 C11.92125 6.995 11.4675 7.49 11 8 C11.33 8.99 11.66 9.98 12 11 C12.66 11 13.32 11 14 11 C14 11.66 14 12.32 14 13 C14.66 13 15.32 13 16 13 C16 12.34 16 11.68 16 11 C16.99 10.67 17.98 10.34 19 10 C19.21531408 7.89968321 19.21531408 7.89968321 17.625 6.375 C15.33996708 4.44151061 14.5745866 4.46961237 12.375 6.5 Z " fill="#EB710F" transform="translate(83,231)"/>
<path d="M0 0 C2.875 2.5625 2.875 2.5625 5 5 C4.0409375 5.6496875 4.0409375 5.6496875 3.0625 6.3125 C0.73253997 7.91239177 0.73253997 7.91239177 0 11 C-2.64 11 -5.28 11 -8 11 C-8.28875 10.360625 -8.5775 9.72125 -8.875 9.0625 C-9.82823451 6.84793921 -9.82823451 6.84793921 -12 6 C-11.69108003 3.01377363 -11.16753715 2.13881649 -8.8125 0.1875 C-5.25326357 -1.31528872 -3.65588343 -1.21862781 0 0 Z " fill="#FA7203" transform="translate(95,257)"/>
<path d="M0 0 C0.87803368 3.73164314 1.17423601 7.16680771 1 11 C0 12 0 12 -3.4375 12.125 C-7 12 -7 12 -9 11 C-8.67 9.35 -8.34 7.7 -8 6 C-8.66 6 -9.32 6 -10 6 C-9.1875 3.0625 -9.1875 3.0625 -8 0 C-4.71023192 -1.09658936 -3.28696233 -0.79953138 0 0 Z " fill="#F87407" transform="translate(51,257)"/>
<path d="M0 0 C5.75 -0.125 5.75 -0.125 8 1 C8.40729228 3.32156597 8.74438677 5.6568787 9 8 C8.34 8 7.68 8 7 8 C7 8.99 7 9.98 7 11 C0.59903382 12.32850242 0.59903382 12.32850242 -1.9375 10.9375 C-3.41793945 8.23787512 -3.20161999 6.02429981 -3 3 C-2.01 3 -1.02 3 0 3 C0 2.01 0 1.02 0 0 Z " fill="#FC7303" transform="translate(88,198)"/>
<path d="M0 0 C1.125 2.3125 1.125 2.3125 2 5 C1.01 6.485 1.01 6.485 0 8 C-0.33 8.99 -0.66 9.98 -1 11 C-4.60008519 11.32728047 -6.41611492 11.40422813 -9.4375 9.3125 C-11 7 -11 7 -11.0625 4.375 C-10 2 -10 2 -7.75 0.6875 C-5.03756762 0.0093919 -2.78200967 -0.15897198 0 0 Z " fill="#FB7404" transform="translate(110,315)"/>
<path d="M0 0 C0.36248013 7.37042925 0.36248013 7.37042925 -1.1875 10.0625 C-3 11 -3 11 -5.5625 10.9375 C-8 10 -8 10 -9.3125 8.3125 C-10.15900919 5.46515091 -10.13428922 2.95436294 -10 0 C-6.42355152 -1.2380014 -3.66305234 -0.74926071 0 0 Z " fill="#FB7303" transform="translate(111,287)"/>
<path d="M0 0 C2.31 0 4.62 0 7 0 C7 0.66 7 1.32 7 2 C7.66 2 8.32 2 9 2 C9.20086443 5.71599191 9.1519437 6.77208445 7 10 C7 10.66 7 11.32 7 12 C4.36 11.67 1.72 11.34 -1 11 C-0.67 7.37 -0.34 3.74 0 0 Z " fill="#FC7303" transform="translate(102,328)"/>
<path d="M0 0 C2.97 0.33 5.94 0.66 9 1 C11.21538462 6.41538462 11.21538462 6.41538462 10.125 9.375 C9.75375 9.91125 9.3825 10.4475 9 11 C7.02 11 5.04 11 3 11 C3 9.35 3 7.7 3 6 C1.68 6.33 0.36 6.66 -1 7 C-0.67 4.69 -0.34 2.38 0 0 Z " fill="#FB7303" transform="translate(101,301)"/>
<path d="M0 0 C0 2.31 0 4.62 0 7 C-1.36125 6.938125 -1.36125 6.938125 -2.75 6.875 C-5.8782046 6.99531556 -7.38614006 7.3914708 -10 9 C-12 6 -12 6 -12 2 C-11.34 1.67 -10.68 1.34 -10 1 C-9.67 0.34 -9.34 -0.32 -9 -1 C-5.4700617 -2.5128307 -3.36420736 -1.58865348 0 0 Z " fill="#FA7403" transform="translate(53,200)"/>
<path d="M0 0 C1.9375 0.625 1.9375 0.625 4 2 C4.960728 5.15667773 5.31789217 7.11968323 4.1875 10.25 C3 12 3 12 1 14 C1.66 14.33 2.32 14.66 3 15 C2.67 15.66 2.34 16.32 2 17 C0.906875 16.773125 -0.18625 16.54625 -1.3125 16.3125 C-4.90531273 15.59853617 -4.90531273 15.59853617 -6.9375 17.4375 C-7.288125 17.953125 -7.63875 18.46875 -8 19 C-8.99 18.67 -9.98 18.34 -11 18 C-10.34 18 -9.68 18 -9 18 C-8.79375 17.360625 -8.5875 16.72125 -8.375 16.0625 C-7 14 -7 14 -3.875 13.25 C-2.451875 13.12625 -2.451875 13.12625 -1 13 C-1.66 11.35 -2.32 9.7 -3 8 C-2.01 8.33 -1.02 8.66 0 9 C0 7.68 0 6.36 0 5 C0 3.33333333 0 1.66666667 0 0 Z " fill="#E0721A" transform="translate(108,241)"/>
<path d="M0 0 C0.33 0 0.66 0 1 0 C0.67 3.63 0.34 7.26 0 11 C2.64 11.33 5.28 11.66 8 12 C7.67 11.01 7.34 10.02 7 9 C7.66 8.34 8.32 7.68 9 7 C9.64767793 4.42938689 9.64767793 4.42938689 10 2 C9.34 2 8.68 2 8 2 C8.33 1.34 8.66 0.68 9 0 C10.5 1.0625 10.5 1.0625 12 3 C12.49891602 6.92005446 12.55253414 9.11594538 10.4375 12.5 C8 14 8 14 4.5 14 C0.73574452 12.92449843 -0.78017554 12.19654722 -3 9 C-3.56412904 5.77640547 -3.29448788 4.47374137 -1.5625 1.6875 C-1.046875 1.130625 -0.53125 0.57375 0 0 Z " fill="#DE6F18" transform="translate(101,328)"/>
<path d="M0 0 C-0.99 1.485 -0.99 1.485 -2 3 C-1.34 3.33 -0.68 3.66 0 4 C-0.33 4.66 -0.66 5.32 -1 6 C-1.5775 5.79375 -2.155 5.5875 -2.75 5.375 C-5.56446249 4.90592292 -6.57537354 5.59215238 -9 7 C-9.99 7.33 -10.98 7.66 -12 8 C-11.67 9.98 -11.34 11.96 -11 14 C-11.99 13.67 -12.98 13.34 -14 13 C-14.33 13.99 -14.66 14.98 -15 16 C-15.66 15.67 -16.32 15.34 -17 15 C-16.67 14.67 -16.34 14.34 -16 14 C-15.76807135 12.48530552 -15.58784762 10.96245438 -15.4375 9.4375 C-15.35371094 8.61121094 -15.26992188 7.78492188 -15.18359375 6.93359375 C-15.12300781 6.29550781 -15.06242187 5.65742188 -15 5 C-14.67 5.66 -14.34 6.32 -14 7 C-13.34 7 -12.68 7 -12 7 C-11.67 6.01 -11.34 5.02 -11 4 C-7.28119778 1.04186187 -4.80814227 -0.5656638 0 0 Z " fill="#E06E16" transform="translate(53,194)"/>
<path d="M0 0 C0.928125 0.33 1.85625 0.66 2.8125 1 C5.92029291 2.14967004 5.92029291 2.14967004 9 2 C9 3.65 9 5.3 9 7 C8.01 6.67 7.02 6.34 6 6 C5.01 6.495 5.01 6.495 4 7 C4 7.66 4 8.32 4 9 C4.66 9.33 5.32 9.66 6 10 C3.69 10 1.38 10 -1 10 C-1 9.01 -1 8.02 -1 7 C-1.66 7 -2.32 7 -3 7 C-3 6.34 -3 5.68 -3 5 C-2 4 -1 3 0 2 C0 1.34 0 0.68 0 0 Z " fill="#FB7302" transform="translate(30,243)"/>
<path d="M0 0 C3 1 3 1 4.09765625 2.8125 C4.41605469 3.534375 4.73445313 4.25625 5.0625 5 C6.32230077 8.1514696 6.32230077 8.1514696 9 10 C9 10.99 9 11.98 9 13 C8.38125 12.67 7.7625 12.34 7.125 12 C5.08981656 10.85806765 5.08981656 10.85806765 3 11 C2.4225 11.515625 1.845 12.03125 1.25 12.5625 C-1 14 -1 14 -4.25 13.6875 C-5.1575 13.460625 -6.065 13.23375 -7 13 C-7 12.67 -7 12.34 -7 12 C-5.35 11.67 -3.7 11.34 -2 11 C-2.33 10.01 -2.66 9.02 -3 8 C-2.34 8 -1.68 8 -1 8 C-0.67 7.34 -0.34 6.68 0 6 C0.99 6.99 1.98 7.98 3 9 C2.67 6.69 2.34 4.38 2 2 C1.34 2 0.68 2 0 2 C0 1.34 0 0.68 0 0 Z " fill="#E07019" transform="translate(36,241)"/>
<path d="M0 0 C2.375 2 2.375 2 4 4 C0.30581799 4 -1.77836178 2.71820705 -5 1 C-4.938125 2.3303125 -4.938125 2.3303125 -4.875 3.6875 C-4.99897246 6.97277013 -5.61387904 9.05449295 -7 12 C-8.32 10.35 -9.64 8.7 -11 7 C-8.95478177 1.02166979 -6.3878372 -0.78218415 0 0 Z " fill="#F37C0C" transform="translate(36,182)"/>
<path d="M0 0 C1.9375 0.5625 1.9375 0.5625 4 2 C5 5.375 5 5.375 5 9 C3.375 11.5 3.375 11.5 1 13 C-1.75 12.75 -1.75 12.75 -4 12 C-2.94496547 9.72761793 -1.93701762 7.92535422 -0.3125 6 C1.2625698 4.07838307 1.2625698 4.07838307 0.6875 1.75 C0.3471875 0.88375 0.3471875 0.88375 0 0 Z " fill="#F5750B" transform="translate(50,241)"/>
<path d="M0 0 C1.32 0 2.64 0 4 0 C4.33 0.99 4.66 1.98 5 3 C5.99 3.33 6.98 3.66 8 4 C7.67 5.65 7.34 7.3 7 9 C6.01 9 5.02 9 4 9 C4 9.99 4 10.98 4 12 C3.01 11.67 2.02 11.34 1 11 C1 9.68 1 8.36 1 7 C0.68848712 4.66365343 0.35840222 2.32961443 0 0 Z " fill="#FC7304" transform="translate(75,169)"/>
<path d="M0 0 C0.33 0.99 0.66 1.98 1 3 C0.34 3 -0.32 3 -1 3 C-0.88455718 7.08564325 -0.88455718 7.08564325 0 11 C2.91841857 13.08632697 2.91841857 13.08632697 6 14 C4.125 15.0625 4.125 15.0625 2 16 C-0.50357192 14.74821404 -2.06433379 13.00018842 -4 11 C-4.99 11.495 -4.99 11.495 -6 12 C-6 11.01 -6 10.02 -6 9 C-5.34 9 -4.68 9 -4 9 C-4.0825 8.2575 -4.165 7.515 -4.25 6.75 C-3.92894816 3.21842973 -2.64734383 2.23369636 0 0 Z " fill="#DA6913" transform="translate(102,284)"/>
<path d="M0 0 C0 0.99 0 1.98 0 3 C-2.86177057 4.43088528 -4.93375773 3.59991697 -8 3 C-8 3.99 -8 4.98 -8 6 C-8.99 6 -9.98 6 -11 6 C-9.78955868 10.60742865 -9.78955868 10.60742865 -8 15 C-9.9375 14.375 -9.9375 14.375 -12 13 C-13.0625 10.25 -13.0625 10.25 -13 7 C-9.57702085 1.91443098 -6.33522279 -2.26257957 0 0 Z " fill="#DD7419" transform="translate(96,195)"/>
<path d="M0 0 C2.31 0.33 4.62 0.66 7 1 C7 1.66 7 2.32 7 3 C5.35 3 3.7 3 2 3 C1.67 4.65 1.34 6.3 1 8 C0.01 8 -0.98 8 -2 8 C-1.67 9.98 -1.34 11.96 -1 14 C-1.33 13.34 -1.66 12.68 -2 12 C-2.66 12 -3.32 12 -4 12 C-4.33 12.66 -4.66 13.32 -5 14 C-5 11.03 -5 8.06 -5 5 C-3.68 4.67 -2.36 4.34 -1 4 C-0.67 2.68 -0.34 1.36 0 0 Z " fill="#DF6C13" transform="translate(101,267)"/>
<path d="M0 0 C3.25 -0.375 3.25 -0.375 7 0 C9.5 2.625 9.5 2.625 11 6 C10.75 9.375 10.75 9.375 10 12 C9.67 12 9.34 12 9 12 C8.67 9.69 8.34 7.38 8 5 C6.68 5.33 5.36 5.66 4 6 C4 5.01 4 4.02 4 3 C2.02463255 3.34786708 2.02463255 3.34786708 0 4 C-0.33 4.66 -0.66 5.32 -1 6 C-1.66 6 -2.32 6 -3 6 C-2 4 -1 2 0 0 Z " fill="#DE731C" transform="translate(102,210)"/>
<path d="M0 0 C0.33 0 0.66 0 1 0 C1.12375 0.804375 1.2475 1.60875 1.375 2.4375 C1.58125 3.283125 1.7875 4.12875 2 5 C2.66 5.33 3.32 5.66 4 6 C4 6.99 4 7.98 4 9 C4.99 9.33 5.98 9.66 7 10 C6.34 10 5.68 10 5 10 C5 10.66 5 11.32 5 12 C5.66 12.33 6.32 12.66 7 13 C4 15 4 15 1 15 C1 17.31 1 19.62 1 22 C0.67 22 0.34 22 0 22 C0 19.36 0 16.72 0 14 C1.32 13.34 2.64 12.68 4 12 C4 11.34 4 10.68 4 10 C2.68 9.34 1.36 8.68 0 8 C0 5.36 0 2.72 0 0 Z " fill="#E8771E" transform="translate(26,200)"/>
<path d="M0 0 C1.485 0.99 1.485 0.99 3 2 C3 2.66 3 3.32 3 4 C3.66 4 4.32 4 5 4 C5.33 3.01 5.66 2.02 6 1 C7 3 7 3 6.0625 6.125 C5.711875 7.07375 5.36125 8.0225 5 9 C6.32 9.33 7.64 9.66 9 10 C9.25 12.8125 9.25 12.8125 9 16 C7 17.875 7 17.875 5 19 C6 17 7 15 8 13 C7.34 13 6.68 13 6 13 C4.3125 11.8125 4.3125 11.8125 3 10 C3.3125 7.3125 3.3125 7.3125 4 5 C3.34 5 2.68 5 2 5 C1.34 3.35 0.68 1.7 0 0 Z " fill="#DC721C" transform="translate(36,226)"/>
<path d="M0 0 C0 0.66 0 1.32 0 2 C0.63474075 3.34882408 1.29848848 4.6846659 2 6 C0.68 6.33 -0.64 6.66 -2 7 C-1.67 5.68 -1.34 4.36 -1 3 C-2.6396875 3.2475 -2.6396875 3.2475 -4.3125 3.5 C-8 4 -8 4 -11 4 C-8.57489301 0.24108417 -8.57489301 0.24108417 -6.0625 -0.8125 C-3.79631016 -1.01851726 -2.15577438 -0.69292748 0 0 Z " fill="#E3741C" transform="translate(96,297)"/>
<path d="M0 0 C1.9375 0.625 1.9375 0.625 4 2 C4.9375 4.9375 4.9375 4.9375 5 8 C3.5625 9.875 3.5625 9.875 2 11 C1.01 10.67 0.02 10.34 -1 10 C-0.649375 9.4225 -0.29875 8.845 0.0625 8.25 C1.16485738 5.60434229 0.8848549 4.65456471 0 2 C0 1.34 0 0.68 0 0 Z " fill="#EC781D" transform="translate(108,241)"/>
<path d="M0 0 C0.33 0.66 0.66 1.32 1 2 C2.98 1.34 4.96 0.68 7 0 C6.60000283 2.31998359 6.09432121 3.86323424 4.75 5.8125 C3 7 3 7 0.3125 6.6875 C-0.450625 6.460625 -1.21375 6.23375 -2 6 C-2 4.35 -2 2.7 -2 1 C-1.34 0.67 -0.68 0.34 0 0 Z " fill="#FC7201" transform="translate(87,230)"/>
<path d="M0 0 C3.10148341 0.0132542 6.0002855 0.17907985 9 1 C11.5625 4.0625 11.5625 4.0625 13 7 C12.01 7.495 12.01 7.495 11 8 C11 7.34 11 6.68 11 6 C8.36 6 5.72 6 3 6 C3 4.68 3 3.36 3 2 C2.01 1.67 1.02 1.34 0 1 C0 0.67 0 0.34 0 0 Z " fill="#E7770F" transform="translate(100,281)"/>
<path d="M0 0 C1.32 0.33 2.64 0.66 4 1 C3.67 1.99 3.34 2.98 3 4 C2.34 4 1.68 4 1 4 C1 5.32 1 6.64 1 8 C1.66 8.33 2.32 8.66 3 9 C2.01 9.66 1.02 10.32 0 11 C-0.66 10.01 -1.32 9.02 -2 8 C-1.67 7.34 -1.34 6.68 -1 6 C-1.99 6 -2.98 6 -4 6 C-4 5.34 -4 4.68 -4 4 C-3.01 4 -2.02 4 -1 4 C-0.67 2.68 -0.34 1.36 0 0 Z " fill="#E86D0C" transform="translate(35,235)"/>
<path d="M0 0 C3 1 3 1 4 3 C4.5824233 9.29017161 4.5824233 9.29017161 2 12.4375 C1.01 13.2109375 1.01 13.2109375 0 14 C-1.32 13.34 -2.64 12.68 -4 12 C-2.68 12 -1.36 12 0 12 C-0.33 11.01 -0.66 10.02 -1 9 C-0.34 8.34 0.32 7.68 1 7 C1.64767793 4.42938689 1.64767793 4.42938689 2 2 C1.34 2 0.68 2 0 2 C0 1.34 0 0.68 0 0 Z " fill="#E67A1E" transform="translate(109,328)"/>
<path d="M0 0 C0.66 0.33 1.32 0.66 2 1 C1.67 1.66 1.34 2.32 1 3 C0.071875 2.835 -0.85625 2.67 -1.8125 2.5 C-4.95621353 1.92251612 -4.95621353 1.92251612 -8 2 C-7.67 2.99 -7.34 3.98 -7 5 C-7.99 5.99 -8.98 6.98 -10 8 C-9.34 8 -8.68 8 -8 8 C-8.66 9.32 -9.32 10.64 -10 12 C-11.40457737 9.19084526 -11.24895157 7.11189466 -11 4 C-8.7746975 -1.28509343 -5.05920627 -0.40152431 0 0 Z " fill="#E8811D" transform="translate(51,255)"/>
<path d="M0 0 C0.66 0 1.32 0 2 0 C2.93423645 3.01031744 3.04449911 3.86650268 2 7 C1.01 7 0.02 7 -1 7 C-1 7.66 -1 8.32 -1 9 C-0.34 9 0.32 9 1 9 C1 9.99 1 10.98 1 12 C0.34 12 -0.32 12 -1 12 C-3.32409827 5.76163095 -3.32409827 5.76163095 -1.75 2.0625 C-0.88375 1.0415625 -0.88375 1.0415625 0 0 Z " fill="#EC7A1C" transform="translate(28,241)"/>
<path d="M0 0 C3.3 0.33 6.6 0.66 10 1 C10.33 2.32 10.66 3.64 11 5 C9.39125 4.938125 9.39125 4.938125 7.75 4.875 C4.34252515 4.9885825 2.79260369 5.21273364 0 7 C0.33 6.01 0.66 5.02 1 4 C1.66 3.67 2.32 3.34 3 3 C2.01 2.01 1.02 1.02 0 0 Z " fill="#DC731A" transform="translate(85,281)"/>
<path d="M0 0 C2.3125 0.5 2.3125 0.5 4.3125 3.5 C2.9925 3.83 1.6725 4.16 0.3125 4.5 C0.3125 3.84 0.3125 3.18 0.3125 2.5 C-1.3375 2.83 -2.9875 3.16 -4.6875 3.5 C-4.6875 4.49 -4.6875 5.48 -4.6875 6.5 C-5.3475 6.5 -6.0075 6.5 -6.6875 6.5 C-6.6875 8.15 -6.6875 9.8 -6.6875 11.5 C-7.0175 11.5 -7.3475 11.5 -7.6875 11.5 C-8.15933746 7.44219787 -8.02079645 5.93804676 -5.5 2.625 C-2.6875 0.5 -2.6875 0.5 0 0 Z " fill="#DE7019" transform="translate(91.6875,311.5)"/>
<path d="M0 0 C1.65 1.32 3.3 2.64 5 4 C2.875 6.0625 2.875 6.0625 0 8 C-3.3125 7.75 -3.3125 7.75 -6 7 C-6 6.67 -6 6.34 -6 6 C-4.35 5.67 -2.7 5.34 -1 5 C-1.33 4.01 -1.66 3.02 -2 2 C-1.34 2 -0.68 2 0 2 C0 1.34 0 0.68 0 0 Z " fill="#E9791B" transform="translate(35,247)"/>
<path d="M0 0 C3.1479846 0.46884877 4.06535559 0.94130746 5.9375 3.4375 C5.6075 4.0975 5.2775 4.7575 4.9375 5.4375 C4.380625 5.086875 3.82375 4.73625 3.25 4.375 C0.36552833 3.20561959 -1.09419666 3.67639658 -4.0625 4.4375 C-5.0525 4.4375 -6.0425 4.4375 -7.0625 4.4375 C-4.76482915 1.60959742 -3.67301925 0.52471704 0 0 Z " fill="#DB7117" transform="translate(91.0625,253.5625)"/>
<path d="M0 0 C2.31 0.33 4.62 0.66 7 1 C8.125 6.75 8.125 6.75 7 9 C6.01 9 5.02 9 4 9 C4 7 4 7 5.5 5.375 C5.995 4.92125 6.49 4.4675 7 4 C6.01 3.67 5.02 3.34 4 3 C4 2.34 4 1.68 4 1 C3.34 1 2.68 1 2 1 C1.67 1.99 1.34 2.98 1 4 C0.67 2.68 0.34 1.36 0 0 Z " fill="#DB7625" transform="translate(95,235)"/>
<path d="M0 0 C3.16115776 1.36983503 3.9927092 1.9890638 6 5 C5.77603583 11.27099664 5.77603583 11.27099664 2.9375 13.9375 C2.298125 14.288125 1.65875 14.63875 1 15 C1.350625 14.484375 1.70125 13.96875 2.0625 13.4375 C3.64499072 9.32302413 2.66245032 5.51973897 0.9375 1.5625 C0.628125 1.046875 0.31875 0.53125 0 0 Z " fill="#D97826" transform="translate(49,225)"/>
<path d="M0 0 C0 0.33 0 0.66 0 1 C-1.98 1 -3.96 1 -6 1 C-6.103125 1.639375 -6.20625 2.27875 -6.3125 2.9375 C-6.539375 3.618125 -6.76625 4.29875 -7 5 C-7.99 5.33 -8.98 5.66 -10 6 C-10.73323796 8.01508358 -10.73323796 8.01508358 -11 10 C-11.31785906 6.50355037 -11.39644605 4.602598 -9.4375 1.625 C-6.18317497 -0.54455002 -3.82869586 -0.29451507 0 0 Z " fill="#E6791E" transform="translate(51,168)"/>
<path d="M0 0 C0.99 0.66 1.98 1.32 3 2 C3.33388082 5.00492736 3.56215006 7.10640654 3 10 C1 12 1 12 -1 13 C-1.33 11.35 -1.66 9.7 -2 8 C-1.34 8 -0.68 8 0 8 C0.98120464 4.94736336 0.98120464 3.05263664 0 0 Z " fill="#E27924" transform="translate(110,314)"/>
<path d="M0 0 C0.5534764 2.07553648 1 3.84365964 1 6 C0.01 6 -0.98 6 -2 6 C-0.60240095 9.54518884 -0.60240095 9.54518884 1 13 C-0.32 12.34 -1.64 11.68 -3 11 C-3.36923077 3.49230769 -3.36923077 3.49230769 -1.5 1 C-1.005 0.67 -0.51 0.34 0 0 Z " fill="#E57820" transform="translate(29,226)"/>
<path d="M0 0 C0.99 0.33 1.98 0.66 3 1 C2 3 2 3 0 5 C-2.84227545 5.49986848 -5.06915075 5.2791285 -8 5 C-8.66 4.34 -9.32 3.68 -10 3 C-8.72125 2.87625 -7.4425 2.7525 -6.125 2.625 C-2.65209064 2.30957601 -2.65209064 2.30957601 0 0 Z " fill="#E8771B" transform="translate(37,220)"/>
<path d="M0 0 C1.9375 0.5625 1.9375 0.5625 4 2 C4.75 5.625 4.75 5.625 5 9 C4.01 9.495 4.01 9.495 3 10 C3 9.01 3 8.02 3 7 C2.01 7 1.02 7 0 7 C0.185625 6.21625 0.37125 5.4325 0.5625 4.625 C1.25962266 2.02910225 1.25962266 2.02910225 0 0 Z " fill="#E4781E" transform="translate(50,241)"/>
<path d="M0 0 C1.32 0 2.64 0 4 0 C2.87994369 3.36016893 1.62788203 4.69064913 -1 7 C-1.66 7 -2.32 7 -3 7 C-3.33 5.35 -3.66 3.7 -4 2 C-3.01 2.33 -2.02 2.66 -1 3 C-0.67 2.01 -0.34 1.02 0 0 Z " fill="#FB7604" transform="translate(102,213)"/>
<path d="M0 0 C1.65 0 3.3 0 5 0 C4.67 0.99 4.34 1.98 4 3 C4 2.34 4 1.68 4 1 C3.34 1 2.68 1 2 1 C1.67 1.99 1.34 2.98 1 4 C0.34 4 -0.32 4 -1 4 C-1 4.66 -1 5.32 -1 6 C-2.98 6 -4.96 6 -7 6 C-7 5.34 -7 4.68 -7 4 C-3.535 3.505 -3.535 3.505 0 3 C0 2.01 0 1.02 0 0 Z " fill="#D96915" transform="translate(95,206)"/>
<path d="M0 0 C0.66 0.66 1.32 1.32 2 2 C1.8125 5 1.8125 5 1 8 C0.01 8.66 -0.98 9.32 -2 10 C-2.33 8.02 -2.66 6.04 -3 4 C-2.34 3.67 -1.68 3.34 -1 3 C-0.67 2.01 -0.34 1.02 0 0 Z " fill="#E87C25" transform="translate(111,258)"/>
<path d="M0 0 C0.66 0.33 1.32 0.66 2 1 C1.67 2.32 1.34 3.64 1 5 C0.34 5 -0.32 5 -1 5 C-0.34 7.31 0.32 9.62 1 12 C0.34 12 -0.32 12 -1 12 C-2.73745313 9.34271875 -3.00831972 8.10399645 -2.75 4.875 C-2 2 -2 2 0 0 Z " fill="#DF802A" transform="translate(86,241)"/>
<path d="M0 0 C1.9375 1.375 1.9375 1.375 3 3 C3 3.66 3 4.32 3 5 C1.68 4.67 0.36 4.34 -1 4 C-1 3.01 -1 2.02 -1 1 C-2.98 1.66 -4.96 2.32 -7 3 C-7.66 2.34 -8.32 1.68 -9 1 C-5.95016004 -0.52491998 -3.3576631 -0.23562548 0 0 Z " fill="#DF781E" transform="translate(80,168)"/>
<path d="M0 0 C0.66 0.66 1.32 1.32 2 2 C1.875 4.9375 1.875 4.9375 1 8 C-1.0625 9.875 -1.0625 9.875 -3 11 C-3 9.35 -3 7.7 -3 6 C-2.01 6 -1.02 6 0 6 C0 4.02 0 2.04 0 0 Z " fill="#DF7A28" transform="translate(111,229)"/>
<path d="M0 0 C0.66 0.33 1.32 0.66 2 1 C0.4375 3.5 0.4375 3.5 -2 6 C-5.625 6.4375 -5.625 6.4375 -9 6 C-9.66 5.34 -10.32 4.68 -11 4 C-8.36 4.33 -5.72 4.66 -3 5 C-3 4.01 -3 3.02 -3 2 C-2.01 2 -1.02 2 0 2 C0 1.34 0 0.68 0 0 Z " fill="#DF7925" transform="translate(82,176)"/>
<path d="M0 0 C1.32 0.33 2.64 0.66 4 1 C2.86500606 4.29148243 2.00716624 4.9959869 -1.125 6.75 C-2.548125 7.36875 -2.548125 7.36875 -4 8 C-4 7.01 -4 6.02 -4 5 C-3.01 4.34 -2.02 3.68 -1 3 C-0.67 2.01 -0.34 1.02 0 0 Z " fill="#FB7202" transform="translate(45,169)"/>
<path d="M0 0 C0.99 0 1.98 0 3 0 C4.0625 1.8125 4.0625 1.8125 5 4 C4.67 4.99 4.34 5.98 4 7 C3.67 6.34 3.34 5.68 3 5 C2.01 5.66 1.02 6.32 0 7 C-0.38133299 5.0085944 -0.71325582 3.00720923 -1 1 C-0.67 0.67 -0.34 0.34 0 0 Z " fill="#EA7414" transform="translate(52,260)"/>
<path d="M0 0 C2 1.375 2 1.375 4 3 C4 3.66 4 4.32 4 5 C4.66 5.33 5.32 5.66 6 6 C5.01 6 4.02 6 3 6 C3 5.34 3 4.68 3 4 C0.03 4 -2.94 4 -6 4 C-5.67 3.34 -5.34 2.68 -5 2 C-3.35 2 -1.7 2 0 2 C0 1.34 0 0.68 0 0 Z " fill="#E8771A" transform="translate(93,239)"/>
<path d="M0 0 C1.9375 0.625 1.9375 0.625 4 2 C4.75 5.125 4.75 5.125 5 8 C4.67 7.01 4.34 6.02 4 5 C3.01 5.33 2.02 5.66 1 6 C0 5 0 5 -0.0625 2.4375 C-0.041875 1.633125 -0.02125 0.82875 0 0 Z " fill="#E47A20" transform="translate(108,183)"/>
<path d="M0 0 C1.9375 0.625 1.9375 0.625 4 2 C4.875 5 4.875 5 5 8 C4.34 8.66 3.68 9.32 3 10 C3 7.69 3 5.38 3 3 C2.01 3 1.02 3 0 3 C0 2.01 0 1.02 0 0 Z " fill="#E27B27" transform="translate(108,270)"/>
<path d="M0 0 C0.66 0.66 1.32 1.32 2 2 C1.8125 5.5 1.8125 5.5 1 9 C0.01 9.66 -0.98 10.32 -2 11 C-2 9.68 -2 8.36 -2 7 C-1.34 7 -0.68 7 0 7 C0 4.69 0 2.38 0 0 Z " fill="#D17727" transform="translate(53,214)"/>
<path d="M0 0 C2.75 -0.25 2.75 -0.25 6 0 C8.375 2 8.375 2 10 4 C6.13304322 4 3.4911548 2.58090029 0 1 C0 0.67 0 0.34 0 0 Z " fill="#E2771B" transform="translate(30,182)"/>
<path d="M0 0 C2.61580479 0.3269756 4.64078137 0.82039068 7 2 C6.67 2.66 6.34 3.32 6 4 C3.36 3.34 0.72 2.68 -2 2 C-1.34 1.34 -0.68 0.68 0 0 Z " fill="#DE7A23" transform="translate(75,254)"/>
<path d="M0 0 C0.33 0.66 0.66 1.32 1 2 C0.06421005 4.35981813 -0.93347808 6.69631264 -2 9 C-2.33 9 -2.66 9 -3 9 C-2.25 2.25 -2.25 2.25 0 0 Z " fill="#DF781F" transform="translate(87,328)"/>
<path d="M0 0 C-2 2 -2 2 -5.125 2.125 C-6.548125 2.063125 -6.548125 2.063125 -8 2 C-8 1.34 -8 0.68 -8 0 C-4.94736336 -0.98120464 -3.05263664 -0.98120464 0 0 Z " fill="#D9640C" transform="translate(96,326)"/>
<path d="M0 0 C-2 2 -2 2 -5.125 2.125 C-6.548125 2.063125 -6.548125 2.063125 -8 2 C-8 1.34 -8 0.68 -8 0 C-4.94736336 -0.98120464 -3.05263664 -0.98120464 0 0 Z " fill="#DC5F0B" transform="translate(96,297)"/>
</svg>
